<?xml version="1.0" encoding="utf-8"?>
<!-- Generator: Adobe Illustrator 18.0.0, SVG Export Plug-In . SVG Version: 6.00 Build 0)  -->
<!DOCTYPE svg PUBLIC "-//W3C//DTD SVG 1.1//EN" "http://www.w3.org/Graphics/SVG/1.1/DTD/svg11.dtd">
<svg version="1.1" xmlns="http://www.w3.org/2000/svg" xmlns:xlink="http://www.w3.org/1999/xlink" x="0px" y="0px"
	 viewBox="0 0 91.5 99" enable-background="new 0 0 91.5 99" xml:space="preserve">
<g id="圖層_1">
	<g>
		<g>
			<path fill="#95BA75" d="M75,99c-9.1,0-16.5-7.4-16.5-16.5S65.9,66,75,66s16.5,7.4,16.5,16.5S84.1,99,75,99z M75,69
				c-7.4,0-13.5,6.1-13.5,13.5S67.6,96,75,96s13.5-6.1,13.5-13.5S82.4,69,75,69z"/>
		</g>
		<circle opacity="0.7" fill="#95BA75" cx="38.5" cy="82.5" r="7.5"/>
		<circle opacity="0.7" fill="#95BA75" cx="7.5" cy="82.5" r="7.5"/>
	</g>
</g>
<g id="框" display="none">
	<g display="inline">
		<path fill="#9FA0A0" d="M56.8-1116.7h-6v1h6V-1116.7L56.8-1116.7z M44.8-1116.7h-6v1h6V-1116.7L44.8-1116.7z M32.8-1116.7h-6v1h6
			V-1116.7L32.8-1116.7z M20.8-1116.7h-6v1h6V-1116.7L20.8-1116.7z M8.8-1116.7h-6v1h6V-1116.7L8.8-1116.7z M-3.2-1116.7h-6v1h6
			V-1116.7L-3.2-1116.7z M-15.2-1116.7h-6v1h6V-1116.7L-15.2-1116.7z M-27.2-1116.7h-6v1h6V-1116.7L-27.2-1116.7z M-39.2-1116.7h-6
			v1h6V-1116.7L-39.2-1116.7z M-51.2-1116.7h-6v1h6V-1116.7L-51.2-1116.7z M-63.2-1116.7h-6v1h6V-1116.7L-63.2-1116.7z
			 M-75.2-1116.7h-6v1h6V-1116.7L-75.2-1116.7z M-87.2-1116.7h-6v1h6V-1116.7L-87.2-1116.7z M-99.2-1116.7h-6v1h6V-1116.7
			L-99.2-1116.7z M-111.2-1116.7h-6v1h6V-1116.7L-111.2-1116.7z M-123.2-1116.7h-6v1h6V-1116.7L-123.2-1116.7z M-135.2-1116.7h-6v1
			h6V-1116.7L-135.2-1116.7z M-147.2-1116.7h-6v1h6V-1116.7L-147.2-1116.7z M-159.2-1116.7h-6v1h6V-1116.7L-159.2-1116.7z
			 M-171.2-1116.7h-6v1h6V-1116.7L-171.2-1116.7z M-183.2-1116.7h-6v1h6V-1116.7L-183.2-1116.7z M-195.2-1116.7h-6v1h6V-1116.7
			L-195.2-1116.7z M-207.2-1116.7h-6v1h6V-1116.7L-207.2-1116.7z M-219.2-1116.7h-6v1h6V-1116.7L-219.2-1116.7z M-231.2-1116.7h-6v1
			h6V-1116.7L-231.2-1116.7z M-243.2-1116.7h-6v1h6V-1116.7L-243.2-1116.7z M-255.2-1116.7h-6v1h6V-1116.7L-255.2-1116.7z
			 M-267.2-1116.7h-6v1h6V-1116.7L-267.2-1116.7z M-279.2-1116.7h-6v1h6V-1116.7L-279.2-1116.7z M-291.2-1116.7h-6v1h6V-1116.7
			L-291.2-1116.7z M-303.2-1116.7h-6v1h6V-1116.7L-303.2-1116.7z M-315.2-1116.7h-6v1h6V-1116.7L-315.2-1116.7z M-327.2-1116.7h-6v1
			h6V-1116.7L-327.2-1116.7z M-339.2-1116.7h-6v1h6V-1116.7L-339.2-1116.7z M-351.2-1116.7h-6v1h6V-1116.7L-351.2-1116.7z
			 M-363.2-1116.7h-6v1h6V-1116.7L-363.2-1116.7z M-375.2-1116.7h-6v1h6V-1116.7L-375.2-1116.7z M-387.2-1116.7h-6v1h6V-1116.7
			L-387.2-1116.7z M-399.2-1116.7h-6v1h6V-1116.7L-399.2-1116.7z M-411.2-1116.7h-6v1h6V-1116.7L-411.2-1116.7z M-423.2-1116.7h-6v1
			h6V-1116.7L-423.2-1116.7z M-435.2-1116.7h-6v1h6V-1116.7L-435.2-1116.7z M-447.2-1116.7h-6v1h6V-1116.7L-447.2-1116.7z
			 M-459.2-1116.7h-6v1h6V-1116.7L-459.2-1116.7z M-471.2-1116.7h-6v1h6V-1116.7L-471.2-1116.7z M-483.2-1116.7h-6v1h6V-1116.7
			L-483.2-1116.7z M-495.2-1116.7h-6v1h6V-1116.7L-495.2-1116.7z M-507.2-1116.7h-6v1h6V-1116.7L-507.2-1116.7z M-519.2-1116.7h-6v1
			h6V-1116.7L-519.2-1116.7z M-531.2-1116.7h-6v1h6V-1116.7L-531.2-1116.7z M-543.2-1116.7h-6v1h6V-1116.7L-543.2-1116.7z
			 M-555.2-1116.7h-6v1h6V-1116.7L-555.2-1116.7z M-567.2-1116.7h-6v1h6V-1116.7L-567.2-1116.7z M-579.2-1116.7h-6v1h6V-1116.7
			L-579.2-1116.7z M-591.2-1116.7h-6v1h6V-1116.7L-591.2-1116.7z M-603.2-1116.7h-6v1h6V-1116.7L-603.2-1116.7z M-615.2-1116.7h-6v1
			h6V-1116.7L-615.2-1116.7z M-627.2-1116.7h-6v1h6V-1116.7L-627.2-1116.7z M-639.2-1116.7h-6v1h6V-1116.7L-639.2-1116.7z
			 M-651.2-1116.7h-6v1h6V-1116.7L-651.2-1116.7z M-663.2-1116.7h-6v1h6V-1116.7L-663.2-1116.7z M-675.2-1116.7h-6v1h6V-1116.7
			L-675.2-1116.7z M-687.2-1116.7h-6v1h6V-1116.7L-687.2-1116.7z M-699.2-1116.7h-6v1h6V-1116.7L-699.2-1116.7z M-711.2-1116.7h-6v1
			h6V-1116.7L-711.2-1116.7z M-723.2-1116.7h-6v1h6V-1116.7L-723.2-1116.7z M-735.2-1116.7h-6v1h6V-1116.7L-735.2-1116.7z
			 M-747.2-1116.7h-6v1h6V-1116.7L-747.2-1116.7z M-759.2-1116.7h-6v1h6V-1116.7L-759.2-1116.7z M-771.2-1116.7h-6v1h6V-1116.7
			L-771.2-1116.7z M-783.2-1116.7h-6v1h6V-1116.7L-783.2-1116.7z M-795.2-1116.7h-6v1h6V-1116.7L-795.2-1116.7z M-807.2-1116.7h-6v1
			h6V-1116.7L-807.2-1116.7z M-819.2-1116.7h-6v1h6V-1116.7L-819.2-1116.7z M-831.2-1116.7h-6v1h6V-1116.7L-831.2-1116.7z
			 M-843.2-1116.7h-6v1h6V-1116.7L-843.2-1116.7z M-855.2-1116.7h-6v1h6V-1116.7L-855.2-1116.7z M-867.2-1116.7h-6v1h6V-1116.7
			L-867.2-1116.7z M-879.2-1116.7h-6v1h6V-1116.7L-879.2-1116.7z M-891.2-1116.7h-6v1h6V-1116.7L-891.2-1116.7z M-903.2-1116.7h-6v1
			h6V-1116.7L-903.2-1116.7z M-915.2-1116.7h-6v1h6V-1116.7L-915.2-1116.7z M-927.2-1116.7h-4v1l0,0c0,0.5,0,1,0,1h1v-1h3V-1116.7
			L-927.2-1116.7z M-930.2-1108.7h-1v6h1V-1108.7L-930.2-1108.7z M-930.2-1096.7h-1v6h1V-1096.7L-930.2-1096.7z M-930.2-1084.7h-1v6
			h1V-1084.7L-930.2-1084.7z M-930.2-1072.7h-1v6h1V-1072.7L-930.2-1072.7z M-930.2-1060.7h-1v6h1V-1060.7L-930.2-1060.7z
			 M-930.2-1048.7h-1v6h1V-1048.7L-930.2-1048.7z M-930.2-1036.7h-1v6h1V-1036.7L-930.2-1036.7z M-930.2-1024.7h-1v6h1V-1024.7
			L-930.2-1024.7z M-930.2-1012.7h-1v6h1V-1012.7L-930.2-1012.7z M-930.2-1000.7h-1v6h1V-1000.7L-930.2-1000.7z M-930.2-988.7h-1v6
			h1V-988.7L-930.2-988.7z M-930.2-976.7h-1v6h1V-976.7L-930.2-976.7z M-930.2-964.7h-1v6h1V-964.7L-930.2-964.7z M-930.2-952.7h-1
			v6h1V-952.7L-930.2-952.7z M-930.2-940.7h-1v6h1V-940.7L-930.2-940.7z M-930.2-928.7h-1v6h1V-928.7L-930.2-928.7z M-930.2-916.7
			h-1v6h1V-916.7L-930.2-916.7z M-930.2-904.7h-1v6h1V-904.7L-930.2-904.7z M-930.2-892.7h-1v6h1V-892.7L-930.2-892.7z
			 M-930.2-880.7h-1v6h1V-880.7L-930.2-880.7z M-930.2-868.7h-1v6h1V-868.7L-930.2-868.7z M-930.2-856.7h-1v6h1V-856.7L-930.2-856.7
			z M-930.2-844.7h-1v6h1V-844.7L-930.2-844.7z M-930.2-832.7h-1v6h1V-832.7L-930.2-832.7z M-930.2-820.7h-1v6h1V-820.7
			L-930.2-820.7z M-930.2-808.7h-1v6h1V-808.7L-930.2-808.7z M-930.2-796.7h-1v6h1V-796.7L-930.2-796.7z M-930.2-784.7h-1v6h1
			V-784.7L-930.2-784.7z M-930.2-772.7h-1v6h1V-772.7L-930.2-772.7z M-930.2-760.7h-1v6h1V-760.7L-930.2-760.7z M-930.2-748.7h-1v6
			h1V-748.7L-930.2-748.7z M-930.2-736.7h-1v6h1V-736.7L-930.2-736.7z M-930.2-724.7h-1v6h1V-724.7L-930.2-724.7z M-930.2-712.7h-1
			v6h1V-712.7L-930.2-712.7z M-930.2-700.7h-1v6h1V-700.7L-930.2-700.7z M-930.2-688.7h-1v6h1V-688.7L-930.2-688.7z M-930.2-676.7
			h-1v6h1V-676.7L-930.2-676.7z M-930.2-664.7h-1v6h1V-664.7L-930.2-664.7z M-930.2-652.7h-1v6h1V-652.7L-930.2-652.7z
			 M-930.2-640.7h-1v6h1V-640.7L-930.2-640.7z M-930.2-628.7h-1v6h1V-628.7L-930.2-628.7z M-930.2-616.7h-1v6h1V-616.7L-930.2-616.7
			z M-930.2-604.7h-1v6h1V-604.7L-930.2-604.7z M-930.2-592.7h-1v6h1V-592.7L-930.2-592.7z M-930.2-580.7h-1v6h1V-580.7
			L-930.2-580.7z M-930.2-568.7h-1v6h1V-568.7L-930.2-568.7z M-930.2-556.7h-1v6h1V-556.7L-930.2-556.7z M-930.2-544.7h-1v6h1
			V-544.7L-930.2-544.7z M-930.2-532.7h-1v6h1V-532.7L-930.2-532.7z M-930.2-520.7h-1v6h1V-520.7L-930.2-520.7z M-930.2-508.7h-1v6
			h1V-508.7L-930.2-508.7z M-930.2-496.7h-1v6h1V-496.7L-930.2-496.7z M-930.2-484.7h-1v6h1V-484.7L-930.2-484.7z M-930.2-472.7h-1
			v6h1V-472.7L-930.2-472.7z M-930.2-460.7h-1v6h1V-460.7L-930.2-460.7z M-930.2-448.7h-1v6h1V-448.7L-930.2-448.7z M-930.2-436.7
			h-1v6h1V-436.7L-930.2-436.7z M-930.2-424.7h-1v6h1V-424.7L-930.2-424.7z M-930.2-412.7h-1v6h1V-412.7L-930.2-412.7z
			 M-930.2-400.7h-1v6h1V-400.7L-930.2-400.7z M-930.2-388.7h-1v6h1V-388.7L-930.2-388.7z M-930.2-376.7h-1v6h1V-376.7L-930.2-376.7
			z M-930.2-364.7h-1v6h1V-364.7L-930.2-364.7z M-930.2-352.7h-1v6h1V-352.7L-930.2-352.7z M-930.2-340.7h-1v6h1V-340.7
			L-930.2-340.7z M-930.2-328.7h-1v6h1V-328.7L-930.2-328.7z M-930.2-316.7h-1v6h1V-316.7L-930.2-316.7z M-930.2-304.7h-1v6h1
			V-304.7L-930.2-304.7z M-930.2-292.7h-1v6h1V-292.7L-930.2-292.7z M-930.2-280.7h-1v6h1V-280.7L-930.2-280.7z M-930.2-268.7h-1v6
			h1V-268.7L-930.2-268.7z M-930.2-256.7h-1v6h1V-256.7L-930.2-256.7z M-930.2-244.7h-1v6h1V-244.7L-930.2-244.7z M-930.2-232.7h-1
			v6h1V-232.7L-930.2-232.7z M-930.2-220.7h-1v6h1V-220.7L-930.2-220.7z M-930.2-208.7h-1v6h1V-208.7L-930.2-208.7z M-930.2-196.7
			h-1v6h1V-196.7L-930.2-196.7z M-930.2-184.7h-1v6h1V-184.7L-930.2-184.7z M-930.2-172.7h-1v6h1V-172.7L-930.2-172.7z
			 M-930.2-160.7h-1v6h1V-160.7L-930.2-160.7z M-930.2-148.7h-1v6h1V-148.7L-930.2-148.7z M-930.2-136.7h-1v6h1V-136.7L-930.2-136.7
			z M-930.2-124.7h-1v6h1V-124.7L-930.2-124.7z M-930.2-112.7h-1v6h1V-112.7L-930.2-112.7z M-930.2-100.7h-1v6h1V-100.7
			L-930.2-100.7z M-930.2-88.7h-1v6h1V-88.7L-930.2-88.7z M-930.2-76.7h-1v6h1V-76.7L-930.2-76.7z M-930.2-64.7h-1v6h1V-64.7
			L-930.2-64.7z M-930.2-52.7h-1v6h1V-52.7L-930.2-52.7z M-930.2-40.7h-1v6h1V-40.7L-930.2-40.7z M-930.2-28.7h-1v6h1V-28.7
			L-930.2-28.7z M-930.2-16.7h-1v6h1V-16.7L-930.2-16.7z M-930.2-4.7h-1v6h1V-4.7L-930.2-4.7z M-930.2,7.3h-1v6h1V7.3L-930.2,7.3z
			 M-930.2,19.3h-1v6h1V19.3L-930.2,19.3z M-930.2,31.3h-1v6h1V31.3L-930.2,31.3z M-930.2,43.3h-1v6h1V43.3L-930.2,43.3z
			 M-930.2,55.3h-1v6h1V55.3L-930.2,55.3z M-930.2,67.3h-1v6h1V67.3L-930.2,67.3z M-930.2,79.3h-1v6h1V79.3L-930.2,79.3z
			 M-930.2,91.3h-1v6h1V91.3L-930.2,91.3z M-930.2,103.3h-1v6h1V103.3L-930.2,103.3z M-930.2,115.3h-1v6h1V115.3L-930.2,115.3z
			 M-930.2,127.3h-1v6h1V127.3L-930.2,127.3z M-930.2,139.3h-1v6h1V139.3L-930.2,139.3z M-930.2,151.3h-1v6h1V151.3L-930.2,151.3z
			 M-930.2,163.3h-1v6h1V163.3L-930.2,163.3z M-930.2,175.3h-1v6h1V175.3L-930.2,175.3z M-930.2,187.3h-1v6h1V187.3L-930.2,187.3z
			 M-930.2,199.3h-1v6h1V199.3L-930.2,199.3z M-930.2,211.3h-1v6h1V211.3L-930.2,211.3z M-930.2,223.3h-1v6h1V223.3L-930.2,223.3z
			 M-930.2,235.3h-1v6h1V235.3L-930.2,235.3z M-930.2,247.3h-1v6h1V247.3L-930.2,247.3z M-930.2,259.3h-1v6h1V259.3L-930.2,259.3z
			 M-930.2,271.3h-1v6h1V271.3L-930.2,271.3z M-930.2,283.3h-1v6h1V283.3L-930.2,283.3z M-930.2,295.3h-1v6h1V295.3L-930.2,295.3z
			 M-930.2,307.3h-1v6h1V307.3L-930.2,307.3z M-930.2,319.3h-1v6h1V319.3L-930.2,319.3z M-930.2,331.3h-1v6h1V331.3L-930.2,331.3z
			 M-930.2,343.3h-1v6h1V343.3L-930.2,343.3z M-930.2,355.3h-1v6h1V355.3L-930.2,355.3z M-930.2,367.3h-1v6h1V367.3L-930.2,367.3z
			 M-930.2,379.3h-1v6h1V379.3L-930.2,379.3z M-930.2,391.3h-1v6h1V391.3L-930.2,391.3z M-930.2,403.3h-1v6h1V403.3L-930.2,403.3z
			 M-930.2,415.3h-1v6h1V415.3L-930.2,415.3z M-930.2,427.3h-1v6h1V427.3L-930.2,427.3z M-930.2,439.3h-1v6h1V439.3L-930.2,439.3z
			 M-930.2,451.3h-1v6h1V451.3L-930.2,451.3z M-930.2,463.3h-1v6h1V463.3L-930.2,463.3z M-930.2,475.3h-1v6h1V475.3L-930.2,475.3z
			 M-930.2,487.3h-1v6h1V487.3L-930.2,487.3z M-930.2,499.3h-1v6h1V499.3L-930.2,499.3z M-930.2,511.3h-1v6h1V511.3L-930.2,511.3z
			 M-930.2,523.3h-1v6h1V523.3L-930.2,523.3z M-930.2,535.3h-1v6h1V535.3L-930.2,535.3z M-930.2,547.3h-1v6h1V547.3L-930.2,547.3z
			 M-930.2,559.3h-1v6h1V559.3L-930.2,559.3z M-930.2,571.3h-1v6h1V571.3L-930.2,571.3z M-930.2,583.3h-1v6h1V583.3L-930.2,583.3z
			 M-930.2,595.3h-1v6h1V595.3L-930.2,595.3z M-930.2,607.3h-1v6h1V607.3L-930.2,607.3z M-930.2,619.3h-1v6h1V619.3L-930.2,619.3z
			 M-930.2,631.3h-1v6h1V631.3L-930.2,631.3z M-930.2,643.3h-1v6h1V643.3L-930.2,643.3z M-930.2,655.3h-1v6h1V655.3L-930.2,655.3z
			 M-930.2,667.3h-1v6h1V667.3L-930.2,667.3z M-930.2,679.3h-1v6h1V679.3L-930.2,679.3z M-930.2,691.3h-1v6h1V691.3L-930.2,691.3z
			 M-930.2,703.3h-1v6h1V703.3L-930.2,703.3z M-930.2,715.3h-1v6h1V715.3L-930.2,715.3z M-930.2,727.3h-1v6h1V727.3L-930.2,727.3z
			 M-930.2,739.3h-1v6h1V739.3L-930.2,739.3z M-930.2,751.3h-1v6h1V751.3L-930.2,751.3z M-930.2,763.3h-1v6h1V763.3L-930.2,763.3z
			 M-930.2,775.3h-1v6h1V775.3L-930.2,775.3z M-930.2,787.3h-1v6h1V787.3L-930.2,787.3z M-930.2,799.3h-1v6h1V799.3L-930.2,799.3z
			 M-930.2,811.3h-1v6h1V811.3L-930.2,811.3z M-930.2,823.3h-1v6h1V823.3L-930.2,823.3z M-930.2,835.3h-1v6h1V835.3L-930.2,835.3z
			 M-930.2,847.3h-1v6h1V847.3L-930.2,847.3z M-930.2,859.3h-1v6h1V859.3L-930.2,859.3z M-930.2,871.3h-1v6h1V871.3L-930.2,871.3z
			 M-930.2,883.3h-1v6h1V883.3L-930.2,883.3z M-930.2,895.3h-1v6h1V895.3L-930.2,895.3z M-930.2,907.3h-1v6h1V907.3L-930.2,907.3z
			 M-930.2,919.3h-1v6h1V919.3L-930.2,919.3z M-930.2,931.3h-1v6h1V931.3L-930.2,931.3z M-930.2,943.3h-1v6h1V943.3L-930.2,943.3z
			 M-930.2,955.3h-1v6h1V955.3L-930.2,955.3z M-930.2,967.3h-1v6h1V967.3L-930.2,967.3z M-930.2,979.3h-1v6h1V979.3L-930.2,979.3z
			 M-930.2,991.3h-1v6h1V991.3L-930.2,991.3z M-930.2,1003.3h-1v6h1V1003.3L-930.2,1003.3z M-930.2,1015.3h-1v6h1V1015.3
			L-930.2,1015.3z M-930.2,1027.3h-1v6h1V1027.3L-930.2,1027.3z M-930.2,1039.3h-1v6h1V1039.3L-930.2,1039.3z M-930.2,1051.3h-1v6h1
			V1051.3L-930.2,1051.3z M-930.2,1063.3h-1v6h1V1063.3L-930.2,1063.3z M-930.2,1075.3h-1v6h1V1075.3L-930.2,1075.3z M-930.2,1087.3
			h-1v6h1V1087.3L-930.2,1087.3z M-930.2,1099.3h-1v6h1V1099.3L-930.2,1099.3z M-930.2,1111.3h-1v6h1V1111.3L-930.2,1111.3z
			 M-930.2,1123.3h-1v6h1V1123.3L-930.2,1123.3z M-930.2,1135.3h-1v6h1V1135.3L-930.2,1135.3z M-930.2,1147.3h-1v6h1V1147.3
			L-930.2,1147.3z M-930.2,1159.3h-1v6h1V1159.3L-930.2,1159.3z M-930.2,1171.3h-1v6h1V1171.3L-930.2,1171.3z M-930.2,1183.3h-1v6h1
			V1183.3L-930.2,1183.3z M-930.2,1195.3h-1v6h1V1195.3L-930.2,1195.3z M-930.2,1207.3h-1v6h1V1207.3L-930.2,1207.3z M-930.2,1219.3
			h-1v6h1V1219.3L-930.2,1219.3z M-930.2,1231.3h-1v6h1V1231.3L-930.2,1231.3z M-930.2,1243.3h-1v6h1V1243.3L-930.2,1243.3z
			 M-930.2,1255.3h-1v6h1V1255.3L-930.2,1255.3z M-930.2,1267.3h-1v6h1V1267.3L-930.2,1267.3z M-930.2,1279.3h-1v6h1V1279.3
			L-930.2,1279.3z M-930.2,1291.3h-1v6h1V1291.3L-930.2,1291.3z M-930.2,1303.3h-1v6h1V1303.3L-930.2,1303.3z M-930.2,1315.3h-1v6h1
			V1315.3L-930.2,1315.3z M-930.2,1327.3h-1v6h1V1327.3L-930.2,1327.3z M-930.2,1339.3h-1v6h1V1339.3L-930.2,1339.3z M-930.2,1351.3
			h-1v6h1V1351.3L-930.2,1351.3z M-930.2,1363.3h-1v6h1V1363.3L-930.2,1363.3z M-930.2,1375.3h-1v6h1V1375.3L-930.2,1375.3z
			 M-930.2,1387.3h-1v6h1V1387.3L-930.2,1387.3z M-930.2,1399.3h-1v6h1V1399.3L-930.2,1399.3z M-930.2,1411.3h-1v6h1V1411.3
			L-930.2,1411.3z M-930.2,1423.3h-1v6h1V1423.3L-930.2,1423.3z M-930.2,1435.3h-1v6h1V1435.3L-930.2,1435.3z M-930.2,1447.3h-1v6h1
			V1447.3L-930.2,1447.3z M-930.2,1459.3h-1v6h1V1459.3L-930.2,1459.3z M-930.2,1471.3h-1v6h1V1471.3L-930.2,1471.3z M-930.2,1483.3
			h-1v6h1V1483.3L-930.2,1483.3z M-930.2,1495.3h-1v6h1V1495.3L-930.2,1495.3z M-930.2,1507.3h-1v6h1V1507.3L-930.2,1507.3z
			 M-930.2,1519.3h-1v6h1V1519.3L-930.2,1519.3z M-930.2,1531.3h-1v6h1V1531.3L-930.2,1531.3z M-930.2,1543.3h-1v6h1V1543.3
			L-930.2,1543.3z M-930.2,1555.3h-1v6h1V1555.3L-930.2,1555.3z M-930.2,1567.3h-1v6h1V1567.3L-930.2,1567.3z M-930.2,1579.3h-1v6h1
			V1579.3L-930.2,1579.3z M-930.2,1591.3h-1v6h1V1591.3L-930.2,1591.3z M-930.2,1603.3h-1v6h1V1603.3L-930.2,1603.3z M-930.2,1615.3
			h-1v6h1V1615.3L-930.2,1615.3z M-930.2,1627.3h-1v6h1V1627.3L-930.2,1627.3z M-930.2,1639.3h-1v6h1V1639.3L-930.2,1639.3z
			 M-930.2,1651.3h-1v6h1V1651.3L-930.2,1651.3z M-930.2,1663.3h-1v6h1V1663.3L-930.2,1663.3z M-930.2,1675.3h-1v6h1V1675.3
			L-930.2,1675.3z M-930.2,1687.3h-1v6h1V1687.3L-930.2,1687.3z M-930.2,1699.3h-1v6h1V1699.3L-930.2,1699.3z M-930.2,1711.3h-1v6h1
			V1711.3L-930.2,1711.3z M-930.2,1723.3h-1v6h1V1723.3L-930.2,1723.3z M-930.2,1735.3h-1v6h1V1735.3L-930.2,1735.3z M-930.2,1747.3
			h-1v6h1V1747.3L-930.2,1747.3z M-930.2,1759.3h-1v6h1V1759.3L-930.2,1759.3z M-930.2,1771.3h-1v6h1V1771.3L-930.2,1771.3z
			 M-930.2,1783.3h-1v6h1V1783.3L-930.2,1783.3z M-930.2,1795.3h-1v6h1V1795.3L-930.2,1795.3z M-930.2,1807.3h-1v6h1V1807.3
			L-930.2,1807.3z M-930.2,1819.3h-1v6h1V1819.3L-930.2,1819.3z M-930.2,1831.3h-1v6h1V1831.3L-930.2,1831.3z M-930.2,1843.3h-1v6h1
			V1843.3L-930.2,1843.3z M-930.2,1855.3h-1v6h1V1855.3L-930.2,1855.3z M-930.2,1867.3h-1v6h1V1867.3L-930.2,1867.3z M-930.2,1879.3
			h-1v6h1V1879.3L-930.2,1879.3z M-930.2,1891.3h-1v6h1V1891.3L-930.2,1891.3z M-930.2,1903.3h-1v6h1V1903.3L-930.2,1903.3z
			 M-930.2,1915.3h-1v6h1V1915.3L-930.2,1915.3z M-930.2,1927.3h-1v6h1V1927.3L-930.2,1927.3z M-930.2,1939.3h-1v6h1V1939.3
			L-930.2,1939.3z M-930.2,1951.3h-1v6h1V1951.3L-930.2,1951.3z M-930.2,1963.3h-1v6h1V1963.3L-930.2,1963.3z M-930.2,1975.3h-1v6h1
			V1975.3L-930.2,1975.3z M-930.2,1987.3h-1v6h1V1987.3L-930.2,1987.3z M-930.2,1999.3h-1v6h1V1999.3L-930.2,1999.3z M-930.2,2011.3
			h-1v6h1V2011.3L-930.2,2011.3z M-930.2,2023.3h-1v6h1V2023.3L-930.2,2023.3z M-930.2,2035.3h-1v6h1V2035.3L-930.2,2035.3z
			 M-930.2,2047.3h-1v6h1V2047.3L-930.2,2047.3z M-930.2,2059.3h-1v6h1V2059.3L-930.2,2059.3z M-930.2,2071.3h-1v6h1V2071.3
			L-930.2,2071.3z M-930.2,2083.3h-1v6h1V2083.3L-930.2,2083.3z M-930.2,2095.3h-1v6h1V2095.3L-930.2,2095.3z M-930.2,2107.3h-1v6h1
			V2107.3L-930.2,2107.3z M-930.2,2119.3h-1v6h1V2119.3L-930.2,2119.3z M-930.2,2131.3h-1v6h1V2131.3L-930.2,2131.3z M-930.2,2143.3
			h-1v6h1V2143.3L-930.2,2143.3z M-930.2,2155.3h-1v6h1V2155.3L-930.2,2155.3z M-930.2,2167.3h-1v6h1V2167.3L-930.2,2167.3z
			 M-930.2,2179.3h-1v6h1V2179.3L-930.2,2179.3z M-930.2,2191.3h-1v6h1V2191.3L-930.2,2191.3z M-930.2,2203.3h-1v6h1V2203.3
			L-930.2,2203.3z M-930.2,2215.3h-1v6h1V2215.3L-930.2,2215.3z M-930.2,2227.3h-1v6h1V2227.3L-930.2,2227.3z M-930.2,2239.3h-1v6h1
			V2239.3L-930.2,2239.3z M-930.2,2251.3h-1v6h1V2251.3L-930.2,2251.3z M-930.2,2263.3h-1v6h1V2263.3L-930.2,2263.3z M-930.2,2275.3
			h-1v6h1V2275.3L-930.2,2275.3z M-930.2,2287.3h-1v6h1V2287.3L-930.2,2287.3z M-930.2,2299.3h-1v6h1V2299.3L-930.2,2299.3z
			 M-930.2,2311.3h-1v6h1V2311.3L-930.2,2311.3z M-930.2,2323.3h-1v6h1V2323.3L-930.2,2323.3z M-930.2,2335.3h-1v6h1V2335.3
			L-930.2,2335.3z M-930.2,2347.3h-1v6h1V2347.3L-930.2,2347.3z M-930.2,2359.3h-1v6h1V2359.3L-930.2,2359.3z M-930.2,2371.3h-1v6h1
			V2371.3L-930.2,2371.3z M-930.2,2383.3h-1v6h1V2383.3L-930.2,2383.3z M-930.2,2395.3h-1v6h1V2395.3L-930.2,2395.3z M-930.2,2407.3
			h-1v6h1V2407.3L-930.2,2407.3z M-930.2,2419.3h-1v6h1V2419.3L-930.2,2419.3z M-930.2,2431.3h-1v6h1V2431.3L-930.2,2431.3z
			 M-930.2,2443.3h-1v6h1V2443.3L-930.2,2443.3z M-930.2,2455.3h-1v6h1V2455.3L-930.2,2455.3z M-930.2,2467.3h-1v6h1V2467.3
			L-930.2,2467.3z M-930.2,2479.3h-1v6h1V2479.3L-930.2,2479.3z M-930.2,2491.3h-1v6h1V2491.3L-930.2,2491.3z M-930.2,2503.3h-1v6h1
			V2503.3L-930.2,2503.3z M-930.2,2515.3h-1v6h1V2515.3L-930.2,2515.3z M-930.2,2527.3h-1v6h1V2527.3L-930.2,2527.3z M-930.2,2539.3
			h-1v6h1V2539.3L-930.2,2539.3z M-930.2,2551.3h-1v6h1V2551.3L-930.2,2551.3z M-930.2,2563.3h-1v6h1V2563.3L-930.2,2563.3z
			 M-930.2,2575.3h-1v6h1V2575.3L-930.2,2575.3z M-930.2,2587.3h-1v6h1V2587.3L-930.2,2587.3z M-930.2,2599.3h-1v6h1V2599.3
			L-930.2,2599.3z M-930.2,2611.3h-1v6h1V2611.3L-930.2,2611.3z M-930.2,2623.3h-1v6h1V2623.3L-930.2,2623.3z M-930.2,2635.3h-1v6h1
			V2635.3L-930.2,2635.3z M-930.2,2647.3h-1v6h1V2647.3L-930.2,2647.3z M-930.2,2659.3h-1v6h1V2659.3L-930.2,2659.3z M-930.2,2671.3
			h-1v6h1V2671.3L-930.2,2671.3z M-930.2,2683.3h-1v6h1V2683.3L-930.2,2683.3z M-930.2,2695.3h-1v6h1V2695.3L-930.2,2695.3z
			 M-930.2,2707.3h-1v6h1V2707.3L-930.2,2707.3z M-930.2,2719.3h-1v6h1V2719.3L-930.2,2719.3z M-930.2,2731.3h-1v6h1V2731.3
			L-930.2,2731.3z M-930.2,2743.3h-1v6h1V2743.3L-930.2,2743.3z M-930.2,2755.3h-1v6h1V2755.3L-930.2,2755.3z M-930.2,2767.3h-1v6h1
			V2767.3L-930.2,2767.3z M-930.2,2779.3h-1v6h1V2779.3L-930.2,2779.3z M-930.2,2791.3h-1v6h1V2791.3L-930.2,2791.3z M-930.2,2803.3
			h-1v6h1V2803.3L-930.2,2803.3z M-930.2,2815.3h-1v6h1V2815.3L-930.2,2815.3z M-930.2,2827.3h-1v6h1V2827.3L-930.2,2827.3z
			 M-930.2,2839.3h-1v6h1V2839.3L-930.2,2839.3z M-930.2,2851.3h-1v6h1V2851.3L-930.2,2851.3z M-930.2,2863.3h-1v6h1V2863.3
			L-930.2,2863.3z M-930.2,2875.3h-1v6h1V2875.3L-930.2,2875.3z M-930.2,2887.3h-1v6h1V2887.3L-930.2,2887.3z M-930.2,2899.3h-1v6h1
			V2899.3L-930.2,2899.3z M-930.2,2911.3h-1v6h1V2911.3L-930.2,2911.3z M-930.2,2923.3h-1v6h1V2923.3L-930.2,2923.3z M-930.2,2935.3
			h-1v6h1V2935.3L-930.2,2935.3z M-930.2,2947.3h-1v6h1V2947.3L-930.2,2947.3z M-930.2,2959.3h-1v6h1V2959.3L-930.2,2959.3z
			 M-930.2,2971.3h-1v6h1V2971.3L-930.2,2971.3z M-930.2,2983.3h-1v6h1V2983.3L-930.2,2983.3z M-930.2,2995.3h-1v6h1V2995.3
			L-930.2,2995.3z M-930.2,3007.3h-1v6h1V3007.3L-930.2,3007.3z M-930.2,3019.3h-1v6h1V3019.3L-930.2,3019.3z M-930.2,3031.3h-1v6h1
			V3031.3L-930.2,3031.3z M-930.2,3043.3h-1v6h1V3043.3L-930.2,3043.3z M-930.2,3055.3h-1v6h1V3055.3L-930.2,3055.3z M-930.2,3067.3
			h-1v6h1V3067.3L-930.2,3067.3z M-930.2,3079.3h-1v6h1V3079.3L-930.2,3079.3z M-930.2,3091.3h-1v6h1V3091.3L-930.2,3091.3z
			 M-930.2,3103.3h-1v6h1V3103.3L-930.2,3103.3z M-930.2,3115.3h-1v6h1V3115.3L-930.2,3115.3z M-930.2,3127.3h-1v6h1V3127.3
			L-930.2,3127.3z M-930.2,3139.3h-1v6h1V3139.3L-930.2,3139.3z M-930.2,3151.3h-1v6h1V3151.3L-930.2,3151.3z M-930.2,3163.3h-1v6h1
			V3163.3L-930.2,3163.3z M-930.2,3175.3h-1v6h1V3175.3L-930.2,3175.3z M-930.2,3187.3h-1v6h1V3187.3L-930.2,3187.3z M-930.2,3199.3
			h-1v6h1V3199.3L-930.2,3199.3z M-930.2,3211.3h-1v6h1V3211.3L-930.2,3211.3z M-930.2,3223.3h-1v6h1V3223.3L-930.2,3223.3z
			 M-930.2,3235.3h-1v6h1V3235.3L-930.2,3235.3z M-930.2,3247.3h-1v6h1V3247.3L-930.2,3247.3z M-930.2,3259.3h-1v6h1V3259.3
			L-930.2,3259.3z M-930.2,3271.3h-1v6h1V3271.3L-930.2,3271.3z M-930.2,3283.3h-1v6h1V3283.3L-930.2,3283.3z M-930.2,3295.3h-1v6h1
			V3295.3L-930.2,3295.3z M-930.2,3307.3h-1v6h1V3307.3L-930.2,3307.3z M-930.2,3319.3h-1v6h1V3319.3L-930.2,3319.3z M-930.2,3331.3
			h-1v6h1V3331.3L-930.2,3331.3z M-930.2,3343.3h-1v6h1V3343.3L-930.2,3343.3z M-930.2,3355.3h-1v6h1V3355.3L-930.2,3355.3z
			 M-930.2,3367.3h-1v6h1V3367.3L-930.2,3367.3z M-930.2,3379.3h-1v6h1V3379.3L-930.2,3379.3z M-930.2,3391.3h-1v6h1V3391.3
			L-930.2,3391.3z M-930.2,3403.3h-1v6h1V3403.3L-930.2,3403.3z M-930.2,3415.3h-1v6h1V3415.3L-930.2,3415.3z M-930.2,3427.3h-1v6h1
			V3427.3L-930.2,3427.3z M-930.2,3439.3h-1v6h1V3439.3L-930.2,3439.3z M-930.2,3451.3h-1v6h1V3451.3L-930.2,3451.3z M-930.2,3463.3
			h-1v6h1V3463.3L-930.2,3463.3z M-930.2,3475.3h-1v6h1V3475.3L-930.2,3475.3z M-930.2,3487.3h-1v6h1V3487.3L-930.2,3487.3z
			 M-930.2,3499.3h-1v6h1V3499.3L-930.2,3499.3z M-930.2,3511.3h-1v6h1V3511.3L-930.2,3511.3z M-930.2,3523.3h-1v6h1V3523.3
			L-930.2,3523.3z M-930.2,3535.3h-1v6h1V3535.3L-930.2,3535.3z M-930.2,3547.3h-1v6h1V3547.3L-930.2,3547.3z M-930.2,3559.3h-1v6h1
			V3559.3L-930.2,3559.3z M-930.2,3571.3h-1v6h1V3571.3L-930.2,3571.3z M-930.2,3583.3h-1v6h1V3583.3L-930.2,3583.3z M-930.2,3595.3
			h-1v6h1V3595.3L-930.2,3595.3z M-930.2,3607.3h-1v6h1V3607.3L-930.2,3607.3z M-930.2,3619.3h-1v6h1V3619.3L-930.2,3619.3z
			 M-930.2,3631.3h-1v6h1V3631.3L-930.2,3631.3z M-930.2,3643.3h-1v6h1V3643.3L-930.2,3643.3z M-930.2,3655.3h-1v6h1V3655.3
			L-930.2,3655.3z M-930.2,3667.3h-1v6h1V3667.3L-930.2,3667.3z M-930.2,3679.3h-1v6h1V3679.3L-930.2,3679.3z M-930.2,3691.3h-1v6h1
			V3691.3L-930.2,3691.3z M-930.2,3703.3h-1v6h1V3703.3L-930.2,3703.3z M-930.2,3715.3h-1v6h1V3715.3L-930.2,3715.3z M-930.2,3727.3
			h-1v6h1V3727.3L-930.2,3727.3z M-930.2,3739.3h-1v6h1V3739.3L-930.2,3739.3z M-930.2,3751.3h-1v6h1V3751.3L-930.2,3751.3z
			 M-930.2,3763.3h-1v6h1V3763.3L-930.2,3763.3z M-930.2,3775.3h-1v6h1V3775.3L-930.2,3775.3z M-930.2,3787.3h-1v6h1V3787.3
			L-930.2,3787.3z M-930.2,3799.3h-1v6h1V3799.3L-930.2,3799.3z M-930.2,3811.3h-1v6h1V3811.3L-930.2,3811.3z M-930.2,3823.3h-1v6h1
			V3823.3L-930.2,3823.3z M-930.2,3835.3h-1v6h1V3835.3L-930.2,3835.3z M-930.2,3847.3h-1v6h1V3847.3L-930.2,3847.3z M-930.2,3859.3
			h-1v6h1V3859.3L-930.2,3859.3z M-930.2,3871.3h-1v6h1V3871.3L-930.2,3871.3z M-930.2,3883.3h-1v6h1V3883.3L-930.2,3883.3z
			 M-930.2,3895.3h-1v6h1V3895.3L-930.2,3895.3z M-930.2,3907.3h-1v6h1V3907.3L-930.2,3907.3z M-930.2,3919.3h-1v6h1V3919.3
			L-930.2,3919.3z M-930.2,3931.3h-1v6h1V3931.3L-930.2,3931.3z M-930.2,3943.3h-1v6h1V3943.3L-930.2,3943.3z M-930.2,3955.3h-1v6h1
			V3955.3L-930.2,3955.3z M-930.2,3967.3h-1v6h1V3967.3L-930.2,3967.3z M-930.2,3979.3h-1v6h1V3979.3L-930.2,3979.3z M-930.2,3991.3
			h-1v6h1V3991.3L-930.2,3991.3z M-930.2,4003.3h-1v6h1V4003.3L-930.2,4003.3z M-930.2,4015.3h-1v6h1V4015.3L-930.2,4015.3z
			 M-930.2,4027.3h-1v6h1V4027.3L-930.2,4027.3z M-930.2,4039.3h-1v6h1V4039.3L-930.2,4039.3z M-930.2,4051.3h-1v6h1V4051.3
			L-930.2,4051.3z M-930.2,4063.3h-1v6h1V4063.3L-930.2,4063.3z M-930.2,4075.3h-1v6h1V4075.3L-930.2,4075.3z M-930.2,4087.3h-1v6h1
			V4087.3L-930.2,4087.3z M-930.2,4099.3h-1v6h1V4099.3L-930.2,4099.3z M-930.2,4111.3h-1v6h1V4111.3L-930.2,4111.3z M-930.2,4123.3
			h-1v6h1V4123.3L-930.2,4123.3z M-930.2,4135.3h-1v6h1V4135.3L-930.2,4135.3z M-930.2,4147.3h-1v6h1V4147.3L-930.2,4147.3z
			 M-930.2,4159.3h-1v6h1V4159.3L-930.2,4159.3z M-930.2,4171.3h-1v6h1V4171.3L-930.2,4171.3z M-930.2,4183.3h-1v6h1V4183.3
			L-930.2,4183.3z M-930.2,4195.3h-1v6h1V4195.3L-930.2,4195.3z M-930.2,4207.3h-1v6h1V4207.3L-930.2,4207.3z M-930.2,4219.3h-1v6h1
			V4219.3L-930.2,4219.3z M-930.2,4231.3h-1v6h1V4231.3L-930.2,4231.3z M-930.2,4243.3h-1v6h1V4243.3L-930.2,4243.3z M-930.2,4255.3
			h-1v6h1V4255.3L-930.2,4255.3z M-930.2,4267.3h-1v6h1V4267.3L-930.2,4267.3z M-930.2,4279.3h-1v6h1V4279.3L-930.2,4279.3z
			 M-930.2,4291.3h-1v6h1V4291.3L-930.2,4291.3z M-930.2,4303.3h-1v6h1V4303.3L-930.2,4303.3z M-930.2,4315.3h-1v6h1V4315.3
			L-930.2,4315.3z M-930.2,4327.3h-1v6h1V4327.3L-930.2,4327.3z M-930.2,4339.3h-1v6h1V4339.3L-930.2,4339.3z M-930.2,4351.3h-1v6h1
			V4351.3L-930.2,4351.3z M-930.2,4363.3h-1v6h1V4363.3L-930.2,4363.3z M-930.2,4375.3h-1v6h1V4375.3L-930.2,4375.3z M-930.2,4387.3
			h-1v6h1V4387.3L-930.2,4387.3z M-930.2,4399.3h-1v6h1V4399.3L-930.2,4399.3z M-930.2,4411.3h-1v6h1V4411.3L-930.2,4411.3z
			 M-930.2,4423.3h-1v6h1V4423.3L-930.2,4423.3z M-930.2,4435.3h-1v6h1V4435.3L-930.2,4435.3z M-930.2,4447.3h-1v6h1V4447.3
			L-930.2,4447.3z M-930.2,4459.3h-1v6h1V4459.3L-930.2,4459.3z M-930.2,4471.3h-1v6h1V4471.3L-930.2,4471.3z M-930.2,4483.3h-1v6h1
			V4483.3L-930.2,4483.3z M-930.2,4495.3h-1v6h1V4495.3L-930.2,4495.3z M-930.2,4507.3h-1v6h1V4507.3L-930.2,4507.3z M-930.2,4519.3
			h-1v6h1V4519.3L-930.2,4519.3z M-930.2,4531.3h-1v6h1V4531.3L-930.2,4531.3z M-930.2,4543.3h-1v6h1V4543.3L-930.2,4543.3z
			 M-930.2,4555.3h-1v6h1V4555.3L-930.2,4555.3z M-930.2,4567.3h-1v6h1V4567.3L-930.2,4567.3z M-930.2,4579.3h-1v6h1V4579.3
			L-930.2,4579.3z M-930.2,4591.3h-1v6h1V4591.3L-930.2,4591.3z M-930.2,4603.3h-1v6h1V4603.3L-930.2,4603.3z M-930.2,4615.3h-1v6h1
			V4615.3L-930.2,4615.3z M-930.2,4627.3h-1v6h1V4627.3L-930.2,4627.3z M-930.2,4639.3h-1v6h1V4639.3L-930.2,4639.3z M-930.2,4651.3
			h-1v6h1V4651.3L-930.2,4651.3z M-930.2,4663.3h-1v6h1V4663.3L-930.2,4663.3z M-930.2,4675.3h-1v6h1V4675.3L-930.2,4675.3z
			 M-930.2,4687.3h-1v6h1V4687.3L-930.2,4687.3z M-930.2,4699.3h-1v6h1V4699.3L-930.2,4699.3z M-930.2,4711.3h-1v6h1V4711.3
			L-930.2,4711.3z M-930.2,4723.3h-1v6h1V4723.3L-930.2,4723.3z M-930.2,4735.3h-1v6h1V4735.3L-930.2,4735.3z M-930.2,4747.3h-1v6h1
			V4747.3L-930.2,4747.3z M-930.2,4759.3h-1v6h1V4759.3L-930.2,4759.3z M-930.2,4771.3h-1v6h1V4771.3L-930.2,4771.3z M-930.2,4783.3
			h-1v6h1V4783.3L-930.2,4783.3z M-930.2,4795.3h-1v6h1V4795.3L-930.2,4795.3z M-930.2,4807.3h-1v6h1V4807.3L-930.2,4807.3z
			 M-930.2,4819.3h-1v6h1V4819.3L-930.2,4819.3z M-930.2,4831.3h-1v6h1V4831.3L-930.2,4831.3z M-930.2,4843.3h-1v6h1V4843.3
			L-930.2,4843.3z M-930.2,4855.3h-1v6h1V4855.3L-930.2,4855.3z M-930.2,4867.3h-1v6h1V4867.3L-930.2,4867.3z M-930.2,4879.3h-1v6h1
			V4879.3L-930.2,4879.3z M-930.2,4891.3h-1v6h1V4891.3L-930.2,4891.3z M-930.2,4903.3h-1v6h1V4903.3L-930.2,4903.3z M-930.2,4915.3
			h-1v6h1V4915.3L-930.2,4915.3z M-930.2,4927.3h-1v6h1V4927.3L-930.2,4927.3z M-930.2,4939.3h-1v6h1V4939.3L-930.2,4939.3z
			 M-930.2,4951.3h-1v6h1V4951.3L-930.2,4951.3z M-930.2,4963.3h-1v6h1V4963.3L-930.2,4963.3z M-930.2,4975.3h-1v6h1V4975.3
			L-930.2,4975.3z M-930.2,4987.3h-1v6h1V4987.3L-930.2,4987.3z M-930.2,4999.3h-1v6h1V4999.3L-930.2,4999.3z M-930.2,5011.3h-1v6h1
			V5011.3L-930.2,5011.3z M-930.2,5023.3h-1v6h1V5023.3L-930.2,5023.3z M-930.2,5035.3h-1v6h1V5035.3L-930.2,5035.3z M-930.2,5047.3
			h-1v6h1V5047.3L-930.2,5047.3z M-930.2,5059.3h-1v6h1V5059.3L-930.2,5059.3z M-930.2,5071.3h-1v6h1V5071.3L-930.2,5071.3z
			 M-930.2,5083.3h-1v6h1V5083.3L-930.2,5083.3z M-930.2,5095.3h-1v6h1V5095.3L-930.2,5095.3z M-930.2,5107.3h-1v6h1V5107.3
			L-930.2,5107.3z M-930.2,5119.3h-1v6h1V5119.3L-930.2,5119.3z M-930.2,5131.3h-1v6h1V5131.3L-930.2,5131.3z M-930.2,5143.3h-1v6h1
			V5143.3L-930.2,5143.3z M-930.2,5155.3h-1v6h1V5155.3L-930.2,5155.3z M-930.2,5167.3h-1v6h1V5167.3L-930.2,5167.3z M-930.2,5179.3
			h-1v6h1V5179.3L-930.2,5179.3z M-930.2,5191.3h-1v6h1V5191.3L-930.2,5191.3z M-930.2,5203.3h-1v6h1V5203.3L-930.2,5203.3z
			 M-930.2,5215.3h-1v6h1V5215.3L-930.2,5215.3z M-930.2,5227.3h-1v6h1V5227.3L-930.2,5227.3z M-930.2,5239.3h-1v6h1V5239.3
			L-930.2,5239.3z M-930.2,5251.3h-1v6h1V5251.3L-930.2,5251.3z M-930.2,5263.3h-1v6h1V5263.3L-930.2,5263.3z M-930.2,5275.3h-1v6h1
			V5275.3L-930.2,5275.3z M-930.2,5287.3h-1v6h1V5287.3L-930.2,5287.3z M-930.2,5299.3h-1v6h1V5299.3L-930.2,5299.3z M-930.2,5311.3
			h-1v6h1V5311.3L-930.2,5311.3z M-930.2,5323.3h-1v6h1V5323.3L-930.2,5323.3z M-930.2,5335.3h-1v6h1V5335.3L-930.2,5335.3z
			 M-930.2,5347.3h-1v6h1V5347.3L-930.2,5347.3z M-930.2,5359.3h-1v6h1V5359.3L-930.2,5359.3z M-930.2,5371.3h-1v6h1V5371.3
			L-930.2,5371.3z M-930.2,5383.3h-1v6h1V5383.3L-930.2,5383.3z M-930.2,5395.3h-1v6h1V5395.3L-930.2,5395.3z M-930.2,5407.3h-1v6h1
			V5407.3L-930.2,5407.3z M-930.2,5419.3h-1v6h1V5419.3L-930.2,5419.3z M-930.2,5431.3h-1v6h1V5431.3L-930.2,5431.3z M-930.2,5443.3
			h-1v6h1V5443.3L-930.2,5443.3z M-930.2,5455.3h-1v6h1V5455.3L-930.2,5455.3z M-930.2,5467.3h-1v6h1V5467.3L-930.2,5467.3z
			 M-930.2,5479.3h-1v6h1V5479.3L-930.2,5479.3z M-930.2,5491.3h-1v6h1V5491.3L-930.2,5491.3z M-930.2,5503.3h-1v6h1V5503.3
			L-930.2,5503.3z M-930.2,5515.3h-1v6h1V5515.3L-930.2,5515.3z M-930.2,5527.3h-1v6h1V5527.3L-930.2,5527.3z M-930.2,5539.3h-1v6h1
			V5539.3L-930.2,5539.3z M-930.2,5551.3h-1v6h1V5551.3L-930.2,5551.3z M-930.2,5563.3h-1v6h1V5563.3L-930.2,5563.3z M-930.2,5575.3
			h-1v6h1V5575.3L-930.2,5575.3z M-930.2,5587.3h-1v6h1V5587.3L-930.2,5587.3z M-930.2,5599.3h-1v6h1V5599.3L-930.2,5599.3z
			 M-930.2,5611.3h-1v6h1V5611.3L-930.2,5611.3z M-930.2,5623.3h-1v6h1V5623.3L-930.2,5623.3z M-930.2,5635.3h-1v6h1V5635.3
			L-930.2,5635.3z M-930.2,5647.3h-1v6h1V5647.3L-930.2,5647.3z M-930.2,5659.3h-1v6h1V5659.3L-930.2,5659.3z M-930.2,5671.3h-1v6h1
			V5671.3L-930.2,5671.3z M-930.2,5683.3h-1v6h1V5683.3L-930.2,5683.3z M-930.2,5695.3h-1v6h1V5695.3L-930.2,5695.3z M-930.2,5707.3
			h-1v6h1V5707.3L-930.2,5707.3z M-930.2,5719.3h-1v6h1V5719.3L-930.2,5719.3z M-930.2,5731.3h-1v6h1V5731.3L-930.2,5731.3z
			 M-930.2,5743.3h-1v6h1V5743.3L-930.2,5743.3z M-930.2,5755.3h-1v6h1V5755.3L-930.2,5755.3z M-930.2,5767.3h-1v6h1V5767.3
			L-930.2,5767.3z M-930.2,5779.3h-1v6h1V5779.3L-930.2,5779.3z M-930.2,5791.3h-1v6h1V5791.3L-930.2,5791.3z M-930.2,5803.3h-1v6h1
			V5803.3L-930.2,5803.3z M-930.2,5815.3h-1v6h1V5815.3L-930.2,5815.3z M-930.2,5827.3h-1v6h1V5827.3L-930.2,5827.3z M-930.2,5839.3
			h-1v6h1V5839.3L-930.2,5839.3z M-930.2,5851.3h-1v6h1V5851.3L-930.2,5851.3z M-930.2,5863.3h-1v6h1V5863.3L-930.2,5863.3z
			 M-930.2,5875.3h-1v6h1V5875.3L-930.2,5875.3z M-930.2,5887.3h-1v6h1V5887.3L-930.2,5887.3z M-930.2,5899.3h-1v6h1V5899.3
			L-930.2,5899.3z M-930.2,5911.3h-1v6h1V5911.3L-930.2,5911.3z M-930.2,5923.3h-1v6h1V5923.3L-930.2,5923.3z M-930.2,5935.3h-1v6h1
			V5935.3L-930.2,5935.3z M-930.2,5947.3h-1v6h1V5947.3L-930.2,5947.3z M-930.2,5959.3h-1v6h1V5959.3L-930.2,5959.3z M-930.2,5971.3
			h-1v6h1V5971.3L-930.2,5971.3z M-930.2,5983.3h-1v6h1V5983.3L-930.2,5983.3z M-930.2,5995.3h-1v6h1V5995.3L-930.2,5995.3z
			 M-930.2,6007.3h-1v6h1V6007.3L-930.2,6007.3z M-930.2,6019.3h-1v6h1V6019.3L-930.2,6019.3z M-930.2,6031.3h-1v6h1V6031.3
			L-930.2,6031.3z M-930.2,6043.3h-1v6h1V6043.3L-930.2,6043.3z M-930.2,6055.3h-1v6h1V6055.3L-930.2,6055.3z M-930.2,6067.3h-1v6h1
			V6067.3L-930.2,6067.3z M-930.2,6079.3h-1v6h1V6079.3L-930.2,6079.3z M-930.2,6091.3h-1v6h1V6091.3L-930.2,6091.3z M-930.2,6103.3
			h-1v6h1V6103.3L-930.2,6103.3z M-930.2,6115.3h-1v6h1V6115.3L-930.2,6115.3z M-930.2,6127.3h-1v6h1V6127.3L-930.2,6127.3z
			 M-930.2,6139.3h-1v6h1V6139.3L-930.2,6139.3z M-930.2,6151.3h-1v6h1V6151.3L-930.2,6151.3z M-930.2,6163.3h-1v6h1V6163.3
			L-930.2,6163.3z M-930.2,6175.3h-1v6h1V6175.3L-930.2,6175.3z M-930.2,6187.3h-1v6h1V6187.3L-930.2,6187.3z M-930.2,6199.3h-1v6h1
			V6199.3L-930.2,6199.3z M-930.2,6211.3h-1v6h1V6211.3L-930.2,6211.3z M-930.2,6223.3h-1v6h1V6223.3L-930.2,6223.3z M-930.2,6235.3
			h-1v6h1V6235.3L-930.2,6235.3z M-930.2,6247.3h-1v6h1V6247.3L-930.2,6247.3z M-930.2,6259.3h-1v6h1V6259.3L-930.2,6259.3z
			 M-930.2,6271.3h-1v6h1V6271.3L-930.2,6271.3z M-930.2,6283.3h-1v6h1V6283.3L-930.2,6283.3z M-930.2,6295.3h-1v6h1V6295.3
			L-930.2,6295.3z M-930.2,6307.3h-1v6h1V6307.3L-930.2,6307.3z M-930.2,6319.3h-1v6h1V6319.3L-930.2,6319.3z M-930.2,6331.3h-1v6h1
			V6331.3L-930.2,6331.3z M-930.2,6343.3h-1v6h1V6343.3L-930.2,6343.3z M-930.2,6355.3h-1v6h1V6355.3L-930.2,6355.3z M-930.2,6367.3
			h-1v6h1V6367.3L-930.2,6367.3z M-930.2,6379.3h-1v6h1V6379.3L-930.2,6379.3z M-930.2,6391.3h-1v6h1V6391.3L-930.2,6391.3z
			 M-930.2,6403.3h-1v6h1V6403.3L-930.2,6403.3z M-930.2,6415.3h-1v6h1V6415.3L-930.2,6415.3z M-930.2,6427.3h-1v6h1V6427.3
			L-930.2,6427.3z M-930.2,6439.3h-1v6h1V6439.3L-930.2,6439.3z M-930.2,6451.3h-1v6h1V6451.3L-930.2,6451.3z M-930.2,6463.3h-1v6h1
			V6463.3L-930.2,6463.3z M-930.2,6475.3h-1v6h1V6475.3L-930.2,6475.3z M-930.2,6487.3h-1v6h1V6487.3L-930.2,6487.3z M-930.2,6499.3
			h-1v6h1V6499.3L-930.2,6499.3z M-930.2,6511.3h-1v6h1V6511.3L-930.2,6511.3z M-930.2,6523.3h-1v6h1V6523.3L-930.2,6523.3z
			 M-930.2,6535.3h-1v6h1V6535.3L-930.2,6535.3z M-930.2,6547.3h-1v6h1V6547.3L-930.2,6547.3z M-930.2,6559.3h-1v6h1V6559.3
			L-930.2,6559.3z M-930.2,6571.3h-1v6h1V6571.3L-930.2,6571.3z M-930.2,6583.3h-1v6h1V6583.3L-930.2,6583.3z M-930.2,6595.3h-1v6h1
			V6595.3L-930.2,6595.3z M-930.2,6607.3h-1v6h1V6607.3L-930.2,6607.3z M-930.2,6619.3h-1v6h1V6619.3L-930.2,6619.3z M-930.2,6631.3
			h-1v6h1V6631.3L-930.2,6631.3z M-930.2,6643.3h-1v6h1V6643.3L-930.2,6643.3z M-930.2,6655.3h-1v6h1V6655.3L-930.2,6655.3z
			 M-930.2,6667.3h-1v6h1V6667.3L-930.2,6667.3z M-930.2,6679.3h-1v6h1V6679.3L-930.2,6679.3z M-930.2,6691.3h-1v6h1V6691.3
			L-930.2,6691.3z M-930.2,6703.3h-1v6h1V6703.3L-930.2,6703.3z M-930.2,6715.3h-1v6h1V6715.3L-930.2,6715.3z M-930.2,6727.3h-1v6h1
			V6727.3L-930.2,6727.3z M-930.2,6739.3h-1v6h1V6739.3L-930.2,6739.3z M-930.2,6751.3h-1v6h1V6751.3L-930.2,6751.3z M-930.2,6763.3
			h-1v6h1V6763.3L-930.2,6763.3z M-930.2,6775.3h-1v6h1V6775.3L-930.2,6775.3z M-930.2,6787.3h-1v6h1V6787.3L-930.2,6787.3z
			 M-930.2,6799.3h-1v6h1V6799.3L-930.2,6799.3z M-930.2,6811.3h-1v6h1V6811.3L-930.2,6811.3z M-930.2,6823.3h-1v6h1V6823.3
			L-930.2,6823.3z M-930.2,6835.3h-1v6h1V6835.3L-930.2,6835.3z M-930.2,6847.3h-1v6h1V6847.3L-930.2,6847.3z M-930.2,6859.3h-1v6h1
			V6859.3L-930.2,6859.3z M-930.2,6871.3h-1v6h1V6871.3L-930.2,6871.3z M-930.2,6883.3h-1v6h1V6883.3L-930.2,6883.3z M-930.2,6895.3
			h-1v6h1V6895.3L-930.2,6895.3z M-930.2,6907.3h-1v6h1V6907.3L-930.2,6907.3z M-930.2,6919.3h-1v6h1V6919.3L-930.2,6919.3z
			 M-930.2,6931.3h-1v6h1V6931.3L-930.2,6931.3z M-930.2,6943.3h-1v6h1V6943.3L-930.2,6943.3z M-930.2,6955.3h-1v6h1V6955.3
			L-930.2,6955.3z M-930.2,6967.3h-1v6h1V6967.3L-930.2,6967.3z M-930.2,6979.3h-1v6h1V6979.3L-930.2,6979.3z M-930.2,6991.3h-1v6h1
			V6991.3L-930.2,6991.3z M-930.2,7003.3h-1v2.1h1l0,0l0,0l0,0l0,0c1.1,0,2.9,0,2.9,0v-1h-2.9V7003.3L-930.2,7003.3z M-915.4,7004.5
			h-6v1h6V7004.5L-915.4,7004.5z M-903.4,7004.5h-6v1h6V7004.5L-903.4,7004.5z M-891.4,7004.5h-6v1h6V7004.5L-891.4,7004.5z
			 M-879.4,7004.5h-6v1h6V7004.5L-879.4,7004.5z M-867.4,7004.5h-6v1h6V7004.5L-867.4,7004.5z M-855.4,7004.5h-6v1h6V7004.5
			L-855.4,7004.5z M-843.4,7004.5h-6v1h6V7004.5L-843.4,7004.5z M-831.4,7004.5h-6v1h6V7004.5L-831.4,7004.5z M-819.4,7004.5h-6v1h6
			V7004.5L-819.4,7004.5z M-807.4,7004.5h-6v1h6V7004.5L-807.4,7004.5z M-795.4,7004.5h-6v1h6V7004.5L-795.4,7004.5z M-783.4,7004.5
			h-6v1h6V7004.5L-783.4,7004.5z M-771.4,7004.5h-6v1h6V7004.5L-771.4,7004.5z M-759.4,7004.5h-6v1h6V7004.5L-759.4,7004.5z
			 M-747.4,7004.5h-6v1h6V7004.5L-747.4,7004.5z M-735.4,7004.5h-6v1h6V7004.5L-735.4,7004.5z M-723.4,7004.5h-6v1h6V7004.5
			L-723.4,7004.5z M-711.4,7004.5h-6v1h6V7004.5L-711.4,7004.5z M-699.4,7004.5h-6v1h6V7004.5L-699.4,7004.5z M-687.4,7004.5h-6v1h6
			V7004.5L-687.4,7004.5z M-675.4,7004.5h-6v1h6V7004.5L-675.4,7004.5z M-663.4,7004.5h-6v1h6V7004.5L-663.4,7004.5z M-651.4,7004.5
			h-6v1h6V7004.5L-651.4,7004.5z M-639.4,7004.5h-6v1h6V7004.5L-639.4,7004.5z M-627.4,7004.5h-6v1h6V7004.5L-627.4,7004.5z
			 M-615.4,7004.5h-6v1h6V7004.5L-615.4,7004.5z M-603.4,7004.5h-6v1h6V7004.5L-603.4,7004.5z M-591.4,7004.5h-6v1h6V7004.5
			L-591.4,7004.5z M-579.4,7004.5h-6v1h6V7004.5L-579.4,7004.5z M-567.4,7004.5h-6v1h6V7004.5L-567.4,7004.5z M-555.4,7004.5h-6v1h6
			V7004.5L-555.4,7004.5z M-543.4,7004.5h-6v1h6V7004.5L-543.4,7004.5z M-531.4,7004.5h-6v1h6V7004.5L-531.4,7004.5z M-519.4,7004.5
			h-6v1h6V7004.5L-519.4,7004.5z M-507.4,7004.5h-6v1h6V7004.5L-507.4,7004.5z M-495.4,7004.5h-6v1h6V7004.5L-495.4,7004.5z
			 M-483.4,7004.5h-6v1h6V7004.5L-483.4,7004.5z M-471.4,7004.5h-6v1h6V7004.5L-471.4,7004.5z M-459.4,7004.5h-6v1h6V7004.5
			L-459.4,7004.5z M-447.4,7004.5h-6v1h6V7004.5L-447.4,7004.5z M-435.4,7004.5h-6v1h6V7004.5L-435.4,7004.5z M-423.4,7004.5h-6v1h6
			V7004.5L-423.4,7004.5z M-411.4,7004.5h-6v1h6V7004.5L-411.4,7004.5z M-399.4,7004.5h-6v1h6V7004.5L-399.4,7004.5z M-387.4,7004.5
			h-6v1h6V7004.5L-387.4,7004.5z M-375.4,7004.5h-6v1h6V7004.5L-375.4,7004.5z M-363.4,7004.5h-6v1h6V7004.5L-363.4,7004.5z
			 M-351.4,7004.5h-6v1h6V7004.5L-351.4,7004.5z M-339.4,7004.5h-6v1h6V7004.5L-339.4,7004.5z M-327.4,7004.5h-6v1h6V7004.5
			L-327.4,7004.5z M-315.4,7004.5h-6v1h6V7004.5L-315.4,7004.5z M-303.4,7004.5h-6v1h6V7004.5L-303.4,7004.5z M-291.4,7004.5h-6v1h6
			V7004.5L-291.4,7004.5z M-279.4,7004.5h-6v1h6V7004.5L-279.4,7004.5z M-267.4,7004.5h-6v1h6V7004.5L-267.4,7004.5z M-255.4,7004.5
			h-6v1h6V7004.5L-255.4,7004.5z M-243.4,7004.5h-6v1h6V7004.5L-243.4,7004.5z M-231.4,7004.5h-6v1h6V7004.5L-231.4,7004.5z
			 M-219.4,7004.5h-6v1h6V7004.5L-219.4,7004.5z M-207.4,7004.5h-6v1h6V7004.5L-207.4,7004.5z M-195.4,7004.5h-6v1h6V7004.5
			L-195.4,7004.5z M-183.4,7004.5h-6v1h6V7004.5L-183.4,7004.5z M-171.4,7004.5h-6v1h6V7004.5L-171.4,7004.5z M-159.4,7004.5h-6v1h6
			V7004.5L-159.4,7004.5z M-147.4,7004.5h-6v1h6V7004.5L-147.4,7004.5z M-135.4,7004.5h-6v1h6V7004.5L-135.4,7004.5z M-123.4,7004.5
			h-6v1h6V7004.5L-123.4,7004.5z M-111.4,7004.5h-6v1h6V7004.5L-111.4,7004.5z M-99.4,7004.5h-6v1h6V7004.5L-99.4,7004.5z
			 M-87.4,7004.5h-6v1h6V7004.5L-87.4,7004.5z M-75.4,7004.5h-6v1h6V7004.5L-75.4,7004.5z M-63.4,7004.5h-6v1h6V7004.5L-63.4,7004.5
			z M-51.4,7004.5h-6v1h6V7004.5L-51.4,7004.5z M-39.4,7004.5h-6v1h6V7004.5L-39.4,7004.5z M-27.4,7004.5h-6v1h6V7004.5
			L-27.4,7004.5z M-15.4,7004.5h-6v1h6V7004.5L-15.4,7004.5z M-3.4,7004.5h-6v1h6V7004.5L-3.4,7004.5z M8.6,7004.5h-6v1h6V7004.5
			L8.6,7004.5z M20.6,7004.5h-6v1h6V7004.5L20.6,7004.5z M32.6,7004.5h-6v1h6V7004.5L32.6,7004.5z M44.6,7004.5h-6v1h6V7004.5
			L44.6,7004.5z M56.6,7004.5h-6v1h6V7004.5L56.6,7004.5z M68.6,7004.5h-6v1h6V7004.5L68.6,7004.5z M68.8,6993.6h-1v6h1V6993.6
			L68.8,6993.6z M68.8,6981.6h-1v6h1V6981.6L68.8,6981.6z M68.8,6969.6h-1v6h1V6969.6L68.8,6969.6z M68.8,6957.6h-1v6h1V6957.6
			L68.8,6957.6z M68.8,6945.6h-1v6h1V6945.6L68.8,6945.6z M68.8,6933.6h-1v6h1V6933.6L68.8,6933.6z M68.8,6921.6h-1v6h1V6921.6
			L68.8,6921.6z M68.8,6909.6h-1v6h1V6909.6L68.8,6909.6z M68.8,6897.6h-1v6h1V6897.6L68.8,6897.6z M68.8,6885.6h-1v6h1V6885.6
			L68.8,6885.6z M68.8,6873.6h-1v6h1V6873.6L68.8,6873.6z M68.8,6861.6h-1v6h1V6861.6L68.8,6861.6z M68.8,6849.6h-1v6h1V6849.6
			L68.8,6849.6z M68.8,6837.6h-1v6h1V6837.6L68.8,6837.6z M68.8,6825.6h-1v6h1V6825.6L68.8,6825.6z M68.8,6813.6h-1v6h1V6813.6
			L68.8,6813.6z M68.8,6801.6h-1v6h1V6801.6L68.8,6801.6z M68.8,6789.6h-1v6h1V6789.6L68.8,6789.6z M68.8,6777.6h-1v6h1V6777.6
			L68.8,6777.6z M68.8,6765.6h-1v6h1V6765.6L68.8,6765.6z M68.8,6753.6h-1v6h1V6753.6L68.8,6753.6z M68.8,6741.6h-1v6h1V6741.6
			L68.8,6741.6z M68.8,6729.6h-1v6h1V6729.6L68.8,6729.6z M68.8,6717.6h-1v6h1V6717.6L68.8,6717.6z M68.8,6705.6h-1v6h1V6705.6
			L68.8,6705.6z M68.8,6693.6h-1v6h1V6693.6L68.8,6693.6z M68.8,6681.6h-1v6h1V6681.6L68.8,6681.6z M68.8,6669.6h-1v6h1V6669.6
			L68.8,6669.6z M68.8,6657.6h-1v6h1V6657.6L68.8,6657.6z M68.8,6645.6h-1v6h1V6645.6L68.8,6645.6z M68.8,6633.6h-1v6h1V6633.6
			L68.8,6633.6z M68.8,6621.6h-1v6h1V6621.6L68.8,6621.6z M68.8,6609.6h-1v6h1V6609.6L68.8,6609.6z M68.8,6597.6h-1v6h1V6597.6
			L68.8,6597.6z M68.8,6585.6h-1v6h1V6585.6L68.8,6585.6z M68.8,6573.6h-1v6h1V6573.6L68.8,6573.6z M68.8,6561.6h-1v6h1V6561.6
			L68.8,6561.6z M68.8,6549.6h-1v6h1V6549.6L68.8,6549.6z M68.8,6537.6h-1v6h1V6537.6L68.8,6537.6z M68.8,6525.6h-1v6h1V6525.6
			L68.8,6525.6z M68.8,6513.6h-1v6h1V6513.6L68.8,6513.6z M68.8,6501.6h-1v6h1V6501.6L68.8,6501.6z M68.8,6489.6h-1v6h1V6489.6
			L68.8,6489.6z M68.8,6477.6h-1v6h1V6477.6L68.8,6477.6z M68.8,6465.6h-1v6h1V6465.6L68.8,6465.6z M68.8,6453.6h-1v6h1V6453.6
			L68.8,6453.6z M68.8,6441.6h-1v6h1V6441.6L68.8,6441.6z M68.8,6429.6h-1v6h1V6429.6L68.8,6429.6z M68.8,6417.6h-1v6h1V6417.6
			L68.8,6417.6z M68.8,6405.6h-1v6h1V6405.6L68.8,6405.6z M68.8,6393.6h-1v6h1V6393.6L68.8,6393.6z M68.8,6381.6h-1v6h1V6381.6
			L68.8,6381.6z M68.8,6369.6h-1v6h1V6369.6L68.8,6369.6z M68.8,6357.6h-1v6h1V6357.6L68.8,6357.6z M68.8,6345.6h-1v6h1V6345.6
			L68.8,6345.6z M68.8,6333.6h-1v6h1V6333.6L68.8,6333.6z M68.8,6321.6h-1v6h1V6321.6L68.8,6321.6z M68.8,6309.6h-1v6h1V6309.6
			L68.8,6309.6z M68.8,6297.6h-1v6h1V6297.6L68.8,6297.6z M68.8,6285.6h-1v6h1V6285.6L68.8,6285.6z M68.8,6273.6h-1v6h1V6273.6
			L68.8,6273.6z M68.8,6261.6h-1v6h1V6261.6L68.8,6261.6z M68.8,6249.6h-1v6h1V6249.6L68.8,6249.6z M68.8,6237.6h-1v6h1V6237.6
			L68.8,6237.6z M68.8,6225.6h-1v6h1V6225.6L68.8,6225.6z M68.8,6213.6h-1v6h1V6213.6L68.8,6213.6z M68.8,6201.6h-1v6h1V6201.6
			L68.8,6201.6z M68.8,6189.6h-1v6h1V6189.6L68.8,6189.6z M68.8,6177.6h-1v6h1V6177.6L68.8,6177.6z M68.8,6165.6h-1v6h1V6165.6
			L68.8,6165.6z M68.8,6153.6h-1v6h1V6153.6L68.8,6153.6z M68.8,6141.6h-1v6h1V6141.6L68.8,6141.6z M68.8,6129.6h-1v6h1V6129.6
			L68.8,6129.6z M68.8,6117.6h-1v6h1V6117.6L68.8,6117.6z M68.8,6105.6h-1v6h1V6105.6L68.8,6105.6z M68.8,6093.6h-1v6h1V6093.6
			L68.8,6093.6z M68.8,6081.6h-1v6h1V6081.6L68.8,6081.6z M68.8,6069.6h-1v6h1V6069.6L68.8,6069.6z M68.8,6057.6h-1v6h1V6057.6
			L68.8,6057.6z M68.8,6045.6h-1v6h1V6045.6L68.8,6045.6z M68.8,6033.6h-1v6h1V6033.6L68.8,6033.6z M68.8,6021.6h-1v6h1V6021.6
			L68.8,6021.6z M68.8,6009.6h-1v6h1V6009.6L68.8,6009.6z M68.8,5997.6h-1v6h1V5997.6L68.8,5997.6z M68.8,5985.6h-1v6h1V5985.6
			L68.8,5985.6z M68.8,5973.6h-1v6h1V5973.6L68.8,5973.6z M68.8,5961.6h-1v6h1V5961.6L68.8,5961.6z M68.8,5949.6h-1v6h1V5949.6
			L68.8,5949.6z M68.8,5937.6h-1v6h1V5937.6L68.8,5937.6z M68.8,5925.6h-1v6h1V5925.6L68.8,5925.6z M68.8,5913.6h-1v6h1V5913.6
			L68.8,5913.6z M68.8,5901.6h-1v6h1V5901.6L68.8,5901.6z M68.8,5889.6h-1v6h1V5889.6L68.8,5889.6z M68.8,5877.6h-1v6h1V5877.6
			L68.8,5877.6z M68.8,5865.6h-1v6h1V5865.6L68.8,5865.6z M68.8,5853.6h-1v6h1V5853.6L68.8,5853.6z M68.8,5841.6h-1v6h1V5841.6
			L68.8,5841.6z M68.8,5829.6h-1v6h1V5829.6L68.8,5829.6z M68.8,5817.6h-1v6h1V5817.6L68.8,5817.6z M68.8,5805.6h-1v6h1V5805.6
			L68.8,5805.6z M68.8,5793.6h-1v6h1V5793.6L68.8,5793.6z M68.8,5781.6h-1v6h1V5781.6L68.8,5781.6z M68.8,5769.6h-1v6h1V5769.6
			L68.8,5769.6z M68.8,5757.6h-1v6h1V5757.6L68.8,5757.6z M68.8,5745.6h-1v6h1V5745.6L68.8,5745.6z M68.8,5733.6h-1v6h1V5733.6
			L68.8,5733.6z M68.8,5721.6h-1v6h1V5721.6L68.8,5721.6z M68.8,5709.6h-1v6h1V5709.6L68.8,5709.6z M68.8,5697.6h-1v6h1V5697.6
			L68.8,5697.6z M68.8,5685.6h-1v6h1V5685.6L68.8,5685.6z M68.8,5673.6h-1v6h1V5673.6L68.8,5673.6z M68.8,5661.6h-1v6h1V5661.6
			L68.8,5661.6z M68.8,5649.6h-1v6h1V5649.6L68.8,5649.6z M68.8,5637.6h-1v6h1V5637.6L68.8,5637.6z M68.8,5625.6h-1v6h1V5625.6
			L68.8,5625.6z M68.8,5613.6h-1v6h1V5613.6L68.8,5613.6z M68.8,5601.6h-1v6h1V5601.6L68.8,5601.6z M68.8,5589.6h-1v6h1V5589.6
			L68.8,5589.6z M68.8,5577.6h-1v6h1V5577.6L68.8,5577.6z M68.8,5565.6h-1v6h1V5565.6L68.8,5565.6z M68.8,5553.6h-1v6h1V5553.6
			L68.8,5553.6z M68.8,5541.6h-1v6h1V5541.6L68.8,5541.6z M68.8,5529.6h-1v6h1V5529.6L68.8,5529.6z M68.8,5517.6h-1v6h1V5517.6
			L68.8,5517.6z M68.8,5505.6h-1v6h1V5505.6L68.8,5505.6z M68.8,5493.6h-1v6h1V5493.6L68.8,5493.6z M68.8,5481.6h-1v6h1V5481.6
			L68.8,5481.6z M68.8,5469.6h-1v6h1V5469.6L68.8,5469.6z M68.8,5457.6h-1v6h1V5457.6L68.8,5457.6z M68.8,5445.6h-1v6h1V5445.6
			L68.8,5445.6z M68.8,5433.6h-1v6h1V5433.6L68.8,5433.6z M68.8,5421.6h-1v6h1V5421.6L68.8,5421.6z M68.8,5409.6h-1v6h1V5409.6
			L68.8,5409.6z M68.8,5397.6h-1v6h1V5397.6L68.8,5397.6z M68.8,5385.6h-1v6h1V5385.6L68.8,5385.6z M68.8,5373.6h-1v6h1V5373.6
			L68.8,5373.6z M68.8,5361.6h-1v6h1V5361.6L68.8,5361.6z M68.8,5349.6h-1v6h1V5349.6L68.8,5349.6z M68.8,5337.6h-1v6h1V5337.6
			L68.8,5337.6z M68.8,5325.6h-1v6h1V5325.6L68.8,5325.6z M68.8,5313.6h-1v6h1V5313.6L68.8,5313.6z M68.8,5301.6h-1v6h1V5301.6
			L68.8,5301.6z M68.8,5289.6h-1v6h1V5289.6L68.8,5289.6z M68.8,5277.6h-1v6h1V5277.6L68.8,5277.6z M68.8,5265.6h-1v6h1V5265.6
			L68.8,5265.6z M68.8,5253.6h-1v6h1V5253.6L68.8,5253.6z M68.8,5241.6h-1v6h1V5241.6L68.8,5241.6z M68.8,5229.6h-1v6h1V5229.6
			L68.8,5229.6z M68.8,5217.6h-1v6h1V5217.6L68.8,5217.6z M68.8,5205.6h-1v6h1V5205.6L68.8,5205.6z M68.8,5193.6h-1v6h1V5193.6
			L68.8,5193.6z M68.8,5181.6h-1v6h1V5181.6L68.8,5181.6z M68.8,5169.6h-1v6h1V5169.6L68.8,5169.6z M68.8,5157.6h-1v6h1V5157.6
			L68.8,5157.6z M68.8,5145.6h-1v6h1V5145.6L68.8,5145.6z M68.8,5133.6h-1v6h1V5133.6L68.8,5133.6z M68.8,5121.6h-1v6h1V5121.6
			L68.8,5121.6z M68.8,5109.6h-1v6h1V5109.6L68.8,5109.6z M68.8,5097.6h-1v6h1V5097.6L68.8,5097.6z M68.8,5085.6h-1v6h1V5085.6
			L68.8,5085.6z M68.8,5073.6h-1v6h1V5073.6L68.8,5073.6z M68.8,5061.6h-1v6h1V5061.6L68.8,5061.6z M68.8,5049.6h-1v6h1V5049.6
			L68.8,5049.6z M68.8,5037.6h-1v6h1V5037.6L68.8,5037.6z M68.8,5025.6h-1v6h1V5025.6L68.8,5025.6z M68.8,5013.6h-1v6h1V5013.6
			L68.8,5013.6z M68.8,5001.6h-1v6h1V5001.6L68.8,5001.6z M68.8,4989.6h-1v6h1V4989.6L68.8,4989.6z M68.8,4977.6h-1v6h1V4977.6
			L68.8,4977.6z M68.8,4965.6h-1v6h1V4965.6L68.8,4965.6z M68.8,4953.6h-1v6h1V4953.6L68.8,4953.6z M68.8,4941.6h-1v6h1V4941.6
			L68.8,4941.6z M68.8,4929.6h-1v6h1V4929.6L68.8,4929.6z M68.8,4917.6h-1v6h1V4917.6L68.8,4917.6z M68.8,4905.6h-1v6h1V4905.6
			L68.8,4905.6z M68.8,4893.6h-1v6h1V4893.6L68.8,4893.6z M68.8,4881.6h-1v6h1V4881.6L68.8,4881.6z M68.8,4869.6h-1v6h1V4869.6
			L68.8,4869.6z M68.8,4857.6h-1v6h1V4857.6L68.8,4857.6z M68.8,4845.6h-1v6h1V4845.6L68.8,4845.6z M68.8,4833.6h-1v6h1V4833.6
			L68.8,4833.6z M68.8,4821.6h-1v6h1V4821.6L68.8,4821.6z M68.8,4809.6h-1v6h1V4809.6L68.8,4809.6z M68.8,4797.6h-1v6h1V4797.6
			L68.8,4797.6z M68.8,4785.6h-1v6h1V4785.6L68.8,4785.6z M68.8,4773.6h-1v6h1V4773.6L68.8,4773.6z M68.8,4761.6h-1v6h1V4761.6
			L68.8,4761.6z M68.8,4749.6h-1v6h1V4749.6L68.8,4749.6z M68.8,4737.6h-1v6h1V4737.6L68.8,4737.6z M68.8,4725.6h-1v6h1V4725.6
			L68.8,4725.6z M68.8,4713.6h-1v6h1V4713.6L68.8,4713.6z M68.8,4701.6h-1v6h1V4701.6L68.8,4701.6z M68.8,4689.6h-1v6h1V4689.6
			L68.8,4689.6z M68.8,4677.6h-1v6h1V4677.6L68.8,4677.6z M68.8,4665.6h-1v6h1V4665.6L68.8,4665.6z M68.8,4653.6h-1v6h1V4653.6
			L68.8,4653.6z M68.8,4641.6h-1v6h1V4641.6L68.8,4641.6z M68.8,4629.6h-1v6h1V4629.6L68.8,4629.6z M68.8,4617.6h-1v6h1V4617.6
			L68.8,4617.6z M68.8,4605.6h-1v6h1V4605.6L68.8,4605.6z M68.8,4593.6h-1v6h1V4593.6L68.8,4593.6z M68.8,4581.6h-1v6h1V4581.6
			L68.8,4581.6z M68.8,4569.6h-1v6h1V4569.6L68.8,4569.6z M68.8,4557.6h-1v6h1V4557.6L68.8,4557.6z M68.8,4545.6h-1v6h1V4545.6
			L68.8,4545.6z M68.8,4533.6h-1v6h1V4533.6L68.8,4533.6z M68.8,4521.6h-1v6h1V4521.6L68.8,4521.6z M68.8,4509.6h-1v6h1V4509.6
			L68.8,4509.6z M68.8,4497.6h-1v6h1V4497.6L68.8,4497.6z M68.8,4485.6h-1v6h1V4485.6L68.8,4485.6z M68.8,4473.6h-1v6h1V4473.6
			L68.8,4473.6z M68.8,4461.6h-1v6h1V4461.6L68.8,4461.6z M68.8,4449.6h-1v6h1V4449.6L68.8,4449.6z M68.8,4437.6h-1v6h1V4437.6
			L68.8,4437.6z M68.8,4425.6h-1v6h1V4425.6L68.8,4425.6z M68.8,4413.6h-1v6h1V4413.6L68.8,4413.6z M68.8,4401.6h-1v6h1V4401.6
			L68.8,4401.6z M68.8,4389.6h-1v6h1V4389.6L68.8,4389.6z M68.8,4377.6h-1v6h1V4377.6L68.8,4377.6z M68.8,4365.6h-1v6h1V4365.6
			L68.8,4365.6z M68.8,4353.6h-1v6h1V4353.6L68.8,4353.6z M68.8,4341.6h-1v6h1V4341.6L68.8,4341.6z M68.8,4329.6h-1v6h1V4329.6
			L68.8,4329.6z M68.8,4317.6h-1v6h1V4317.6L68.8,4317.6z M68.8,4305.6h-1v6h1V4305.6L68.8,4305.6z M68.8,4293.6h-1v6h1V4293.6
			L68.8,4293.6z M68.8,4281.6h-1v6h1V4281.6L68.8,4281.6z M68.8,4269.6h-1v6h1V4269.6L68.8,4269.6z M68.8,4257.6h-1v6h1V4257.6
			L68.8,4257.6z M68.8,4245.6h-1v6h1V4245.6L68.8,4245.6z M68.8,4233.6h-1v6h1V4233.6L68.8,4233.6z M68.8,4221.6h-1v6h1V4221.6
			L68.8,4221.6z M68.8,4209.6h-1v6h1V4209.6L68.8,4209.6z M68.8,4197.6h-1v6h1V4197.6L68.8,4197.6z M68.8,4185.6h-1v6h1V4185.6
			L68.8,4185.6z M68.8,4173.6h-1v6h1V4173.6L68.8,4173.6z M68.8,4161.6h-1v6h1V4161.6L68.8,4161.6z M68.8,4149.6h-1v6h1V4149.6
			L68.8,4149.6z M68.8,4137.6h-1v6h1V4137.6L68.8,4137.6z M68.8,4125.6h-1v6h1V4125.6L68.8,4125.6z M68.8,4113.6h-1v6h1V4113.6
			L68.8,4113.6z M68.8,4101.6h-1v6h1V4101.6L68.8,4101.6z M68.8,4089.6h-1v6h1V4089.6L68.8,4089.6z M68.8,4077.6h-1v6h1V4077.6
			L68.8,4077.6z M68.8,4065.6h-1v6h1V4065.6L68.8,4065.6z M68.8,4053.6h-1v6h1V4053.6L68.8,4053.6z M68.8,4041.6h-1v6h1V4041.6
			L68.8,4041.6z M68.8,4029.6h-1v6h1V4029.6L68.8,4029.6z M68.8,4017.6h-1v6h1V4017.6L68.8,4017.6z M68.8,4005.6h-1v6h1V4005.6
			L68.8,4005.6z M68.8,3993.6h-1v6h1V3993.6L68.8,3993.6z M68.8,3981.6h-1v6h1V3981.6L68.8,3981.6z M68.8,3969.6h-1v6h1V3969.6
			L68.8,3969.6z M68.8,3957.6h-1v6h1V3957.6L68.8,3957.6z M68.8,3945.6h-1v6h1V3945.6L68.8,3945.6z M68.8,3933.6h-1v6h1V3933.6
			L68.8,3933.6z M68.8,3921.6h-1v6h1V3921.6L68.8,3921.6z M68.8,3909.6h-1v6h1V3909.6L68.8,3909.6z M68.8,3897.6h-1v6h1V3897.6
			L68.8,3897.6z M68.8,3885.6h-1v6h1V3885.6L68.8,3885.6z M68.8,3873.6h-1v6h1V3873.6L68.8,3873.6z M68.8,3861.6h-1v6h1V3861.6
			L68.8,3861.6z M68.8,3849.6h-1v6h1V3849.6L68.8,3849.6z M68.8,3837.6h-1v6h1V3837.6L68.8,3837.6z M68.8,3825.6h-1v6h1V3825.6
			L68.8,3825.6z M68.8,3813.6h-1v6h1V3813.6L68.8,3813.6z M68.8,3801.6h-1v6h1V3801.6L68.8,3801.6z M68.8,3789.6h-1v6h1V3789.6
			L68.8,3789.6z M68.8,3777.6h-1v6h1V3777.6L68.8,3777.6z M68.8,3765.6h-1v6h1V3765.6L68.8,3765.6z M68.8,3753.6h-1v6h1V3753.6
			L68.8,3753.6z M68.8,3741.6h-1v6h1V3741.6L68.8,3741.6z M68.8,3729.6h-1v6h1V3729.6L68.8,3729.6z M68.8,3717.6h-1v6h1V3717.6
			L68.8,3717.6z M68.8,3705.6h-1v6h1V3705.6L68.8,3705.6z M68.8,3693.6h-1v6h1V3693.6L68.8,3693.6z M68.8,3681.6h-1v6h1V3681.6
			L68.8,3681.6z M68.8,3669.6h-1v6h1V3669.6L68.8,3669.6z M68.8,3657.6h-1v6h1V3657.6L68.8,3657.6z M68.8,3645.6h-1v6h1V3645.6
			L68.8,3645.6z M68.8,3633.6h-1v6h1V3633.6L68.8,3633.6z M68.8,3621.6h-1v6h1V3621.6L68.8,3621.6z M68.8,3609.6h-1v6h1V3609.6
			L68.8,3609.6z M68.8,3597.6h-1v6h1V3597.6L68.8,3597.6z M68.8,3585.6h-1v6h1V3585.6L68.8,3585.6z M68.8,3573.6h-1v6h1V3573.6
			L68.8,3573.6z M68.8,3561.6h-1v6h1V3561.6L68.8,3561.6z M68.8,3549.6h-1v6h1V3549.6L68.8,3549.6z M68.8,3537.6h-1v6h1V3537.6
			L68.8,3537.6z M68.8,3525.6h-1v6h1V3525.6L68.8,3525.6z M68.8,3513.6h-1v6h1V3513.6L68.8,3513.6z M68.8,3501.6h-1v6h1V3501.6
			L68.8,3501.6z M68.8,3489.6h-1v6h1V3489.6L68.8,3489.6z M68.8,3477.6h-1v6h1V3477.6L68.8,3477.6z M68.8,3465.6h-1v6h1V3465.6
			L68.8,3465.6z M68.8,3453.6h-1v6h1V3453.6L68.8,3453.6z M68.8,3441.6h-1v6h1V3441.6L68.8,3441.6z M68.8,3429.6h-1v6h1V3429.6
			L68.8,3429.6z M68.8,3417.6h-1v6h1V3417.6L68.8,3417.6z M68.8,3405.6h-1v6h1V3405.6L68.8,3405.6z M68.8,3393.6h-1v6h1V3393.6
			L68.8,3393.6z M68.8,3381.6h-1v6h1V3381.6L68.8,3381.6z M68.8,3369.6h-1v6h1V3369.6L68.8,3369.6z M68.8,3357.6h-1v6h1V3357.6
			L68.8,3357.6z M68.8,3345.6h-1v6h1V3345.6L68.8,3345.6z M68.8,3333.6h-1v6h1V3333.6L68.8,3333.6z M68.8,3321.6h-1v6h1V3321.6
			L68.8,3321.6z M68.8,3309.6h-1v6h1V3309.6L68.8,3309.6z M68.8,3297.6h-1v6h1V3297.6L68.8,3297.6z M68.8,3285.6h-1v6h1V3285.6
			L68.8,3285.6z M68.8,3273.6h-1v6h1V3273.6L68.8,3273.6z M68.8,3261.6h-1v6h1V3261.6L68.8,3261.6z M68.8,3249.6h-1v6h1V3249.6
			L68.8,3249.6z M68.8,3237.6h-1v6h1V3237.6L68.8,3237.6z M68.8,3225.6h-1v6h1V3225.6L68.8,3225.6z M68.8,3213.6h-1v6h1V3213.6
			L68.8,3213.6z M68.8,3201.6h-1v6h1V3201.6L68.8,3201.6z M68.8,3189.6h-1v6h1V3189.6L68.8,3189.6z M68.8,3177.6h-1v6h1V3177.6
			L68.8,3177.6z M68.8,3165.6h-1v6h1V3165.6L68.8,3165.6z M68.8,3153.6h-1v6h1V3153.6L68.8,3153.6z M68.8,3141.6h-1v6h1V3141.6
			L68.8,3141.6z M68.8,3129.6h-1v6h1V3129.6L68.8,3129.6z M68.8,3117.6h-1v6h1V3117.6L68.8,3117.6z M68.8,3105.6h-1v6h1V3105.6
			L68.8,3105.6z M68.8,3093.6h-1v6h1V3093.6L68.8,3093.6z M68.8,3081.6h-1v6h1V3081.6L68.8,3081.6z M68.8,3069.6h-1v6h1V3069.6
			L68.8,3069.6z M68.8,3057.6h-1v6h1V3057.6L68.8,3057.6z M68.8,3045.6h-1v6h1V3045.6L68.8,3045.6z M68.8,3033.6h-1v6h1V3033.6
			L68.8,3033.6z M68.8,3021.6h-1v6h1V3021.6L68.8,3021.6z M68.8,3009.6h-1v6h1V3009.6L68.8,3009.6z M68.8,2997.6h-1v6h1V2997.6
			L68.8,2997.6z M68.8,2985.6h-1v6h1V2985.6L68.8,2985.6z M68.8,2973.6h-1v6h1V2973.6L68.8,2973.6z M68.8,2961.6h-1v6h1V2961.6
			L68.8,2961.6z M68.8,2949.6h-1v6h1V2949.6L68.8,2949.6z M68.8,2937.6h-1v6h1V2937.6L68.8,2937.6z M68.8,2925.6h-1v6h1V2925.6
			L68.8,2925.6z M68.8,2913.6h-1v6h1V2913.6L68.8,2913.6z M68.8,2901.6h-1v6h1V2901.6L68.8,2901.6z M68.8,2889.6h-1v6h1V2889.6
			L68.8,2889.6z M68.8,2877.6h-1v6h1V2877.6L68.8,2877.6z M68.8,2865.6h-1v6h1V2865.6L68.8,2865.6z M68.8,2853.6h-1v6h1V2853.6
			L68.8,2853.6z M68.8,2841.6h-1v6h1V2841.6L68.8,2841.6z M68.8,2829.6h-1v6h1V2829.6L68.8,2829.6z M68.8,2817.6h-1v6h1V2817.6
			L68.8,2817.6z M68.8,2805.6h-1v6h1V2805.6L68.8,2805.6z M68.8,2793.6h-1v6h1V2793.6L68.8,2793.6z M68.8,2781.6h-1v6h1V2781.6
			L68.8,2781.6z M68.8,2769.6h-1v6h1V2769.6L68.8,2769.6z M68.8,2757.6h-1v6h1V2757.6L68.8,2757.6z M68.8,2745.6h-1v6h1V2745.6
			L68.8,2745.6z M68.8,2733.6h-1v6h1V2733.6L68.8,2733.6z M68.8,2721.6h-1v6h1V2721.6L68.8,2721.6z M68.8,2709.6h-1v6h1V2709.6
			L68.8,2709.6z M68.8,2697.6h-1v6h1V2697.6L68.8,2697.6z M68.8,2685.6h-1v6h1V2685.6L68.8,2685.6z M68.8,2673.6h-1v6h1V2673.6
			L68.8,2673.6z M68.8,2661.6h-1v6h1V2661.6L68.8,2661.6z M68.8,2649.6h-1v6h1V2649.6L68.8,2649.6z M68.8,2637.6h-1v6h1V2637.6
			L68.8,2637.6z M68.8,2625.6h-1v6h1V2625.6L68.8,2625.6z M68.8,2613.6h-1v6h1V2613.6L68.8,2613.6z M68.8,2601.6h-1v6h1V2601.6
			L68.8,2601.6z M68.8,2589.6h-1v6h1V2589.6L68.8,2589.6z M68.8,2577.6h-1v6h1V2577.6L68.8,2577.6z M68.8,2565.6h-1v6h1V2565.6
			L68.8,2565.6z M68.8,2553.6h-1v6h1V2553.6L68.8,2553.6z M68.8,2541.6h-1v6h1V2541.6L68.8,2541.6z M68.8,2529.6h-1v6h1V2529.6
			L68.8,2529.6z M68.8,2517.6h-1v6h1V2517.6L68.8,2517.6z M68.8,2505.6h-1v6h1V2505.6L68.8,2505.6z M68.8,2493.6h-1v6h1V2493.6
			L68.8,2493.6z M68.8,2481.6h-1v6h1V2481.6L68.8,2481.6z M68.8,2469.6h-1v6h1V2469.6L68.8,2469.6z M68.8,2457.6h-1v6h1V2457.6
			L68.8,2457.6z M68.8,2445.6h-1v6h1V2445.6L68.8,2445.6z M68.8,2433.6h-1v6h1V2433.6L68.8,2433.6z M68.8,2421.6h-1v6h1V2421.6
			L68.8,2421.6z M68.8,2409.6h-1v6h1V2409.6L68.8,2409.6z M68.8,2397.6h-1v6h1V2397.6L68.8,2397.6z M68.8,2385.6h-1v6h1V2385.6
			L68.8,2385.6z M68.8,2373.6h-1v6h1V2373.6L68.8,2373.6z M68.8,2361.6h-1v6h1V2361.6L68.8,2361.6z M68.8,2349.6h-1v6h1V2349.6
			L68.8,2349.6z M68.8,2337.6h-1v6h1V2337.6L68.8,2337.6z M68.8,2325.6h-1v6h1V2325.6L68.8,2325.6z M68.8,2313.6h-1v6h1V2313.6
			L68.8,2313.6z M68.8,2301.6h-1v6h1V2301.6L68.8,2301.6z M68.8,2289.6h-1v6h1V2289.6L68.8,2289.6z M68.8,2277.6h-1v6h1V2277.6
			L68.8,2277.6z M68.8,2265.6h-1v6h1V2265.6L68.8,2265.6z M68.8,2253.6h-1v6h1V2253.6L68.8,2253.6z M68.8,2241.6h-1v6h1V2241.6
			L68.8,2241.6z M68.8,2229.6h-1v6h1V2229.6L68.8,2229.6z M68.8,2217.6h-1v6h1V2217.6L68.8,2217.6z M68.8,2205.6h-1v6h1V2205.6
			L68.8,2205.6z M68.8,2193.6h-1v6h1V2193.6L68.8,2193.6z M68.8,2181.6h-1v6h1V2181.6L68.8,2181.6z M68.8,2169.6h-1v6h1V2169.6
			L68.8,2169.6z M68.8,2157.6h-1v6h1V2157.6L68.8,2157.6z M68.8,2145.6h-1v6h1V2145.6L68.8,2145.6z M68.8,2133.6h-1v6h1V2133.6
			L68.8,2133.6z M68.8,2121.6h-1v6h1V2121.6L68.8,2121.6z M68.8,2109.6h-1v6h1V2109.6L68.8,2109.6z M68.8,2097.6h-1v6h1V2097.6
			L68.8,2097.6z M68.8,2085.6h-1v6h1V2085.6L68.8,2085.6z M68.8,2073.6h-1v6h1V2073.6L68.8,2073.6z M68.8,2061.6h-1v6h1V2061.6
			L68.8,2061.6z M68.8,2049.6h-1v6h1V2049.6L68.8,2049.6z M68.8,2037.6h-1v6h1V2037.6L68.8,2037.6z M68.8,2025.6h-1v6h1V2025.6
			L68.8,2025.6z M68.8,2013.6h-1v6h1V2013.6L68.8,2013.6z M68.8,2001.6h-1v6h1V2001.6L68.8,2001.6z M68.8,1989.6h-1v6h1V1989.6
			L68.8,1989.6z M68.8,1977.6h-1v6h1V1977.6L68.8,1977.6z M68.8,1965.6h-1v6h1V1965.6L68.8,1965.6z M68.8,1953.6h-1v6h1V1953.6
			L68.8,1953.6z M68.8,1941.6h-1v6h1V1941.6L68.8,1941.6z M68.8,1929.6h-1v6h1V1929.6L68.8,1929.6z M68.8,1917.6h-1v6h1V1917.6
			L68.8,1917.6z M68.8,1905.6h-1v6h1V1905.6L68.8,1905.6z M68.8,1893.6h-1v6h1V1893.6L68.8,1893.6z M68.8,1881.6h-1v6h1V1881.6
			L68.8,1881.6z M68.8,1869.6h-1v6h1V1869.6L68.8,1869.6z M68.8,1857.6h-1v6h1V1857.6L68.8,1857.6z M68.8,1845.6h-1v6h1V1845.6
			L68.8,1845.6z M68.8,1833.6h-1v6h1V1833.6L68.8,1833.6z M68.8,1821.6h-1v6h1V1821.6L68.8,1821.6z M68.8,1809.6h-1v6h1V1809.6
			L68.8,1809.6z M68.8,1797.6h-1v6h1V1797.6L68.8,1797.6z M68.8,1785.6h-1v6h1V1785.6L68.8,1785.6z M68.8,1773.6h-1v6h1V1773.6
			L68.8,1773.6z M68.8,1761.6h-1v6h1V1761.6L68.8,1761.6z M68.8,1749.6h-1v6h1V1749.6L68.8,1749.6z M68.8,1737.6h-1v6h1V1737.6
			L68.8,1737.6z M68.8,1725.6h-1v6h1V1725.6L68.8,1725.6z M68.8,1713.6h-1v6h1V1713.6L68.8,1713.6z M68.8,1701.6h-1v6h1V1701.6
			L68.8,1701.6z M68.8,1689.6h-1v6h1V1689.6L68.8,1689.6z M68.8,1677.6h-1v6h1V1677.6L68.8,1677.6z M68.8,1665.6h-1v6h1V1665.6
			L68.8,1665.6z M68.8,1653.6h-1v6h1V1653.6L68.8,1653.6z M68.8,1641.6h-1v6h1V1641.6L68.8,1641.6z M68.8,1629.6h-1v6h1V1629.6
			L68.8,1629.6z M68.8,1617.6h-1v6h1V1617.6L68.8,1617.6z M68.8,1605.6h-1v6h1V1605.6L68.8,1605.6z M68.8,1593.6h-1v6h1V1593.6
			L68.8,1593.6z M68.8,1581.6h-1v6h1V1581.6L68.8,1581.6z M68.8,1569.6h-1v6h1V1569.6L68.8,1569.6z M68.8,1557.6h-1v6h1V1557.6
			L68.8,1557.6z M68.8,1545.6h-1v6h1V1545.6L68.8,1545.6z M68.8,1533.6h-1v6h1V1533.6L68.8,1533.6z M68.8,1521.6h-1v6h1V1521.6
			L68.8,1521.6z M68.8,1509.6h-1v6h1V1509.6L68.8,1509.6z M68.8,1497.6h-1v6h1V1497.6L68.8,1497.6z M68.8,1485.6h-1v6h1V1485.6
			L68.8,1485.6z M68.8,1473.6h-1v6h1V1473.6L68.8,1473.6z M68.8,1461.6h-1v6h1V1461.6L68.8,1461.6z M68.8,1449.6h-1v6h1V1449.6
			L68.8,1449.6z M68.8,1437.6h-1v6h1V1437.6L68.8,1437.6z M68.8,1425.6h-1v6h1V1425.6L68.8,1425.6z M68.8,1413.6h-1v6h1V1413.6
			L68.8,1413.6z M68.8,1401.6h-1v6h1V1401.6L68.8,1401.6z M68.8,1389.6h-1v6h1V1389.6L68.8,1389.6z M68.8,1377.6h-1v6h1V1377.6
			L68.8,1377.6z M68.8,1365.6h-1v6h1V1365.6L68.8,1365.6z M68.8,1353.6h-1v6h1V1353.6L68.8,1353.6z M68.8,1341.6h-1v6h1V1341.6
			L68.8,1341.6z M68.8,1329.6h-1v6h1V1329.6L68.8,1329.6z M68.8,1317.6h-1v6h1V1317.6L68.8,1317.6z M68.8,1305.6h-1v6h1V1305.6
			L68.8,1305.6z M68.8,1293.6h-1v6h1V1293.6L68.8,1293.6z M68.8,1281.6h-1v6h1V1281.6L68.8,1281.6z M68.8,1269.6h-1v6h1V1269.6
			L68.8,1269.6z M68.8,1257.6h-1v6h1V1257.6L68.8,1257.6z M68.8,1245.6h-1v6h1V1245.6L68.8,1245.6z M68.8,1233.6h-1v6h1V1233.6
			L68.8,1233.6z M68.8,1221.6h-1v6h1V1221.6L68.8,1221.6z M68.8,1209.6h-1v6h1V1209.6L68.8,1209.6z M68.8,1197.6h-1v6h1V1197.6
			L68.8,1197.6z M68.8,1185.6h-1v6h1V1185.6L68.8,1185.6z M68.8,1173.6h-1v6h1V1173.6L68.8,1173.6z M68.8,1161.6h-1v6h1V1161.6
			L68.8,1161.6z M68.8,1149.6h-1v6h1V1149.6L68.8,1149.6z M68.8,1137.6h-1v6h1V1137.6L68.8,1137.6z M68.8,1125.6h-1v6h1V1125.6
			L68.8,1125.6z M68.8,1113.6h-1v6h1V1113.6L68.8,1113.6z M68.8,1101.6h-1v6h1V1101.6L68.8,1101.6z M68.8,1089.6h-1v6h1V1089.6
			L68.8,1089.6z M68.8,1077.6h-1v6h1V1077.6L68.8,1077.6z M68.8,1065.6h-1v6h1V1065.6L68.8,1065.6z M68.8,1053.6h-1v6h1V1053.6
			L68.8,1053.6z M68.8,1041.6h-1v6h1V1041.6L68.8,1041.6z M68.8,1029.6h-1v6h1V1029.6L68.8,1029.6z M68.8,1017.6h-1v6h1V1017.6
			L68.8,1017.6z M68.8,1005.6h-1v6h1V1005.6L68.8,1005.6z M68.8,993.6h-1v6h1V993.6L68.8,993.6z M68.8,981.6h-1v6h1V981.6
			L68.8,981.6z M68.8,969.6h-1v6h1V969.6L68.8,969.6z M68.8,957.6h-1v6h1V957.6L68.8,957.6z M68.8,945.6h-1v6h1V945.6L68.8,945.6z
			 M68.8,933.6h-1v6h1V933.6L68.8,933.6z M68.8,921.6h-1v6h1V921.6L68.8,921.6z M68.8,909.6h-1v6h1V909.6L68.8,909.6z M68.8,897.6
			h-1v6h1V897.6L68.8,897.6z M68.8,885.6h-1v6h1V885.6L68.8,885.6z M68.8,873.6h-1v6h1V873.6L68.8,873.6z M68.8,861.6h-1v6h1V861.6
			L68.8,861.6z M68.8,849.6h-1v6h1V849.6L68.8,849.6z M68.8,837.6h-1v6h1V837.6L68.8,837.6z M68.8,825.6h-1v6h1V825.6L68.8,825.6z
			 M68.8,813.6h-1v6h1V813.6L68.8,813.6z M68.8,801.6h-1v6h1V801.6L68.8,801.6z M68.8,789.6h-1v6h1V789.6L68.8,789.6z M68.8,777.6
			h-1v6h1V777.6L68.8,777.6z M68.8,765.6h-1v6h1V765.6L68.8,765.6z M68.8,753.6h-1v6h1V753.6L68.8,753.6z M68.8,741.6h-1v6h1V741.6
			L68.8,741.6z M68.8,729.6h-1v6h1V729.6L68.8,729.6z M68.8,717.6h-1v6h1V717.6L68.8,717.6z M68.8,705.6h-1v6h1V705.6L68.8,705.6z
			 M68.8,693.6h-1v6h1V693.6L68.8,693.6z M68.8,681.6h-1v6h1V681.6L68.8,681.6z M68.8,669.6h-1v6h1V669.6L68.8,669.6z M68.8,657.6
			h-1v6h1V657.6L68.8,657.6z M68.8,645.6h-1v6h1V645.6L68.8,645.6z M68.8,633.6h-1v6h1V633.6L68.8,633.6z M68.8,621.6h-1v6h1V621.6
			L68.8,621.6z M68.8,609.6h-1v6h1V609.6L68.8,609.6z M68.8,597.6h-1v6h1V597.6L68.8,597.6z M68.8,585.6h-1v6h1V585.6L68.8,585.6z
			 M68.8,573.6h-1v6h1V573.6L68.8,573.6z M68.8,561.6h-1v6h1V561.6L68.8,561.6z M68.8,549.6h-1v6h1V549.6L68.8,549.6z M68.8,537.6
			h-1v6h1V537.6L68.8,537.6z M68.8,525.6h-1v6h1V525.6L68.8,525.6z M68.8,513.6h-1v6h1V513.6L68.8,513.6z M68.8,501.6h-1v6h1V501.6
			L68.8,501.6z M68.8,489.6h-1v6h1V489.6L68.8,489.6z M68.8,477.6h-1v6h1V477.6L68.8,477.6z M68.8,465.6h-1v6h1V465.6L68.8,465.6z
			 M68.8,453.6h-1v6h1V453.6L68.8,453.6z M68.8,441.6h-1v6h1V441.6L68.8,441.6z M68.8,429.6h-1v6h1V429.6L68.8,429.6z M68.8,417.6
			h-1v6h1V417.6L68.8,417.6z M68.8,405.6h-1v6h1V405.6L68.8,405.6z M68.8,393.6h-1v6h1V393.6L68.8,393.6z M68.8,381.6h-1v6h1V381.6
			L68.8,381.6z M68.8,369.6h-1v6h1V369.6L68.8,369.6z M68.8,357.6h-1v6h1V357.6L68.8,357.6z M68.8,345.6h-1v6h1V345.6L68.8,345.6z
			 M68.8,333.6h-1v6h1V333.6L68.8,333.6z M68.8,321.6h-1v6h1V321.6L68.8,321.6z M68.8,309.6h-1v6h1V309.6L68.8,309.6z M68.8,297.6
			h-1v6h1V297.6L68.8,297.6z M68.8,285.6h-1v6h1V285.6L68.8,285.6z M68.8,273.6h-1v6h1V273.6L68.8,273.6z M68.8,261.6h-1v6h1V261.6
			L68.8,261.6z M68.8,249.6h-1v6h1V249.6L68.8,249.6z M68.8,237.6h-1v6h1V237.6L68.8,237.6z M68.8,225.6h-1v6h1V225.6L68.8,225.6z
			 M68.8,213.6h-1v6h1V213.6L68.8,213.6z M68.8,201.6h-1v6h1V201.6L68.8,201.6z M68.8,189.6h-1v6h1V189.6L68.8,189.6z M68.8,177.6
			h-1v6h1V177.6L68.8,177.6z M68.8,165.6h-1v6h1V165.6L68.8,165.6z M68.8,153.6h-1v6h1V153.6L68.8,153.6z M68.8,141.6h-1v6h1V141.6
			L68.8,141.6z M68.8,129.6h-1v6h1V129.6L68.8,129.6z M68.8,117.6h-1v6h1V117.6L68.8,117.6z M68.8,105.6h-1v6h1V105.6L68.8,105.6z
			 M68.8,93.6h-1v6h1V93.6L68.8,93.6z M68.8,81.6h-1v6h1V81.6L68.8,81.6z M68.8,69.6h-1v6h1V69.6L68.8,69.6z M68.8,57.6h-1v6h1V57.6
			L68.8,57.6z M68.8,45.6h-1v6h1V45.6L68.8,45.6z M68.8,33.6h-1v6h1V33.6L68.8,33.6z M68.8,21.6h-1v6h1V21.6L68.8,21.6z M68.8,9.6
			h-1v6h1V9.6L68.8,9.6z M68.8-2.4h-1v6h1V-2.4L68.8-2.4z M68.8-14.4h-1v6h1V-14.4L68.8-14.4z M68.8-26.4h-1v6h1V-26.4L68.8-26.4z
			 M68.8-38.4h-1v6h1V-38.4L68.8-38.4z M68.8-50.4h-1v6h1V-50.4L68.8-50.4z M68.8-62.4h-1v6h1V-62.4L68.8-62.4z M68.8-74.4h-1v6h1
			V-74.4L68.8-74.4z M68.8-86.4h-1v6h1V-86.4L68.8-86.4z M68.8-98.4h-1v6h1V-98.4L68.8-98.4z M68.8-110.4h-1v6h1V-110.4L68.8-110.4z
			 M68.8-122.4h-1v6h1V-122.4L68.8-122.4z M68.8-134.4h-1v6h1V-134.4L68.8-134.4z M68.8-146.4h-1v6h1V-146.4L68.8-146.4z
			 M68.8-158.4h-1v6h1V-158.4L68.8-158.4z M68.8-170.4h-1v6h1V-170.4L68.8-170.4z M68.8-182.4h-1v6h1V-182.4L68.8-182.4z
			 M68.8-194.4h-1v6h1V-194.4L68.8-194.4z M68.8-206.4h-1v6h1V-206.4L68.8-206.4z M68.8-218.4h-1v6h1V-218.4L68.8-218.4z
			 M68.8-230.4h-1v6h1V-230.4L68.8-230.4z M68.8-242.4h-1v6h1V-242.4L68.8-242.4z M68.8-254.4h-1v6h1V-254.4L68.8-254.4z
			 M68.8-266.4h-1v6h1V-266.4L68.8-266.4z M68.8-278.4h-1v6h1V-278.4L68.8-278.4z M68.8-290.4h-1v6h1V-290.4L68.8-290.4z
			 M68.8-302.4h-1v6h1V-302.4L68.8-302.4z M68.8-314.4h-1v6h1V-314.4L68.8-314.4z M68.8-326.4h-1v6h1V-326.4L68.8-326.4z
			 M68.8-338.4h-1v6h1V-338.4L68.8-338.4z M68.8-350.4h-1v6h1V-350.4L68.8-350.4z M68.8-362.4h-1v6h1V-362.4L68.8-362.4z
			 M68.8-374.4h-1v6h1V-374.4L68.8-374.4z M68.8-386.4h-1v6h1V-386.4L68.8-386.4z M68.8-398.4h-1v6h1V-398.4L68.8-398.4z
			 M68.8-410.4h-1v6h1V-410.4L68.8-410.4z M68.8-422.4h-1v6h1V-422.4L68.8-422.4z M68.8-434.4h-1v6h1V-434.4L68.8-434.4z
			 M68.8-446.4h-1v6h1V-446.4L68.8-446.4z M68.8-458.4h-1v6h1V-458.4L68.8-458.4z M68.8-470.4h-1v6h1V-470.4L68.8-470.4z
			 M68.8-482.4h-1v6h1V-482.4L68.8-482.4z M68.8-494.4h-1v6h1V-494.4L68.8-494.4z M68.8-506.4h-1v6h1V-506.4L68.8-506.4z
			 M68.8-518.4h-1v6h1V-518.4L68.8-518.4z M68.8-530.4h-1v6h1V-530.4L68.8-530.4z M68.8-542.4h-1v6h1V-542.4L68.8-542.4z
			 M68.8-554.4h-1v6h1V-554.4L68.8-554.4z M68.8-566.4h-1v6h1V-566.4L68.8-566.4z M68.8-578.4h-1v6h1V-578.4L68.8-578.4z
			 M68.8-590.4h-1v6h1V-590.4L68.8-590.4z M68.8-602.4h-1v6h1V-602.4L68.8-602.4z M68.8-614.4h-1v6h1V-614.4L68.8-614.4z
			 M68.8-626.4h-1v6h1V-626.4L68.8-626.4z M68.8-638.4h-1v6h1V-638.4L68.8-638.4z M68.8-650.4h-1v6h1V-650.4L68.8-650.4z
			 M68.8-662.4h-1v6h1V-662.4L68.8-662.4z M68.8-674.4h-1v6h1V-674.4L68.8-674.4z M68.8-686.4h-1v6h1V-686.4L68.8-686.4z
			 M68.8-698.4h-1v6h1V-698.4L68.8-698.4z M68.8-710.4h-1v6h1V-710.4L68.8-710.4z M68.8-722.4h-1v6h1V-722.4L68.8-722.4z
			 M68.8-734.4h-1v6h1V-734.4L68.8-734.4z M68.8-746.4h-1v6h1V-746.4L68.8-746.4z M68.8-758.4h-1v6h1V-758.4L68.8-758.4z
			 M68.8-770.4h-1v6h1V-770.4L68.8-770.4z M68.8-782.4h-1v6h1V-782.4L68.8-782.4z M68.8-794.4h-1v6h1V-794.4L68.8-794.4z
			 M68.8-806.4h-1v6h1V-806.4L68.8-806.4z M68.8-818.4h-1v6h1V-818.4L68.8-818.4z M68.8-830.4h-1v6h1V-830.4L68.8-830.4z
			 M68.8-842.4h-1v6h1V-842.4L68.8-842.4z M68.8-854.4h-1v6h1V-854.4L68.8-854.4z M68.8-866.4h-1v6h1V-866.4L68.8-866.4z
			 M68.8-878.4h-1v6h1V-878.4L68.8-878.4z M68.8-890.4h-1v6h1V-890.4L68.8-890.4z M68.8-902.4h-1v6h1V-902.4L68.8-902.4z
			 M68.8-914.4h-1v6h1V-914.4L68.8-914.4z M68.8-926.4h-1v6h1V-926.4L68.8-926.4z M68.8-938.4h-1v6h1V-938.4L68.8-938.4z
			 M68.8-950.4h-1v6h1V-950.4L68.8-950.4z M68.8-962.4h-1v6h1V-962.4L68.8-962.4z M68.8-974.4h-1v6h1V-974.4L68.8-974.4z
			 M68.8-986.4h-1v6h1V-986.4L68.8-986.4z M68.8-998.4h-1v6h1V-998.4L68.8-998.4z M68.8-1010.4h-1v6h1V-1010.4L68.8-1010.4z
			 M68.8-1022.4h-1v6h1V-1022.4L68.8-1022.4z M68.8-1034.4h-1v6h1V-1034.4L68.8-1034.4z M68.8-1046.4h-1v6h1V-1046.4L68.8-1046.4z
			 M68.8-1058.4h-1v6h1V-1058.4L68.8-1058.4z M68.8-1070.4h-1v6h1V-1070.4L68.8-1070.4z M68.8-1082.4h-1v6h1V-1082.4L68.8-1082.4z
			 M68.8-1094.4h-1v6h1V-1094.4L68.8-1094.4z M68.8-1106.4h-1v6h1V-1106.4L68.8-1106.4z M68.8-1116.7h-6v1h5v3.3h1V-1116.7
			L68.8-1116.7z"/>
	</g>
</g>
</svg>
