<?xml version="1.0" encoding="utf-8"?>
<!-- Generator: Adobe Illustrator 18.0.0, SVG Export Plug-In . SVG Version: 6.00 Build 0)  -->
<!DOCTYPE svg PUBLIC "-//W3C//DTD SVG 1.1//EN" "http://www.w3.org/Graphics/SVG/1.1/DTD/svg11.dtd">
<svg version="1.1" xmlns="http://www.w3.org/2000/svg" xmlns:xlink="http://www.w3.org/1999/xlink" x="0px" y="0px"
	 viewBox="0 0 100 103.8" enable-background="new 0 0 100 103.8" xml:space="preserve">
<g id="圖層_1">
	<g>
		<path fill="#F6C226" d="M91.2,0.6l-9.5,2.5c-1.1,0.3-1.3,1.2-0.5,1.9l1.4,1.4L70.7,18.3l-4.3,4.3L13.5,75.4
			C2.6,58.6,4.5,35.7,19.2,21c13.2-13.2,32.9-16.1,49-8.7l1.2-1.2l3.3-3.3c-18.6-9.6-42.1-6.6-57.7,9C-3.6,35.3-4.3,65.1,12.9,84.5
			l2.6-2.6l1.7-1.7l54-54l4.3-4.3l11.3-11.3l1.4,1.4c0.8,0.8,1.7,0.5,1.9-0.5L92.6,2C92.9,0.9,92.3,0.3,91.2,0.6z"/>
		<path fill="#FFFFFF" d="M8.8,103.2l9.5-2.5c1.1-0.3,1.3-1.2,0.5-1.9l-1.4-1.4l11.8-11.8l4.3-4.3l52.8-52.8
			c11,16.9,9.1,39.7-5.7,54.5c-13.2,13.2-32.9,16.1-49,8.7l-1.2,1.2l-3.3,3.3c18.6,9.6,42.1,6.6,57.7-9
			c18.6-18.6,19.3-48.4,2.1-67.8l-2.6,2.6l-1.7,1.7l-54,54l-4.3,4.3L13.2,93.1l-1.4-1.4c-0.8-0.8-1.7-0.5-1.9,0.5l-2.5,9.5
			C7.1,102.9,7.7,103.5,8.8,103.2z"/>
	</g>
</g>
<g id="框" display="none">
</g>
</svg>
