<?xml version="1.0" encoding="utf-8"?>
<!-- Generator: Adobe Illustrator 18.0.0, SVG Export Plug-In . SVG Version: 6.00 Build 0)  -->
<!DOCTYPE svg PUBLIC "-//W3C//DTD SVG 1.1//EN" "http://www.w3.org/Graphics/SVG/1.1/DTD/svg11.dtd">
<svg version="1.1" id="圖層_1" xmlns="http://www.w3.org/2000/svg" xmlns:xlink="http://www.w3.org/1999/xlink" x="0px" y="0px"
	 viewBox="25 0 200 50" enable-background="new 25 0 200 50" xml:space="preserve">
<g id="圖層_1_1_">
	<g>
		
			<text transform="matrix(1 0 0 1 98.5037 29.1713)" fill="#FFFFFF" font-family="'PingFangTC-Regular-B5pc-H'" font-size="22.9757" letter-spacing="3">競品分析</text>
		
			<text transform="matrix(1 0 0 1 96.6444 47.3344)" fill="#FFFFFF" font-family="'PingFangTC-Regular-B5pc-H'" font-size="11.4878">Competition &amp; Analysis</text>
		<g>
			<path fill="#F6C226" d="M71.1,0l-4.4,1.1c-0.5,0.1-0.6,0.6-0.3,0.9L67,2.7l-5.6,5.6l-2,2L34.9,34.9c-5.1-7.9-4.2-18.5,2.7-25.4
				c6.1-6.1,15.3-7.5,22.8-4l0.6-0.6l1.5-1.5c-8.6-4.5-19.6-3.1-26.9,4.2c-8.6,8.6-9,22.5-1,31.6l1.1-1.1l0.8-0.8l25.2-25.2l2-2
				l5.4-5.4l0.7,0.7c0.3,0.4,0.7,0.3,0.9-0.2l1.1-4.4C71.8,0.2,71.5-0.1,71.1,0z"/>
			<path fill="#FFFFFF" d="M32.7,47.9l4.4-1.1c0.5-0.1,0.6-0.6,0.3-0.9l-0.7-0.7l5.6-5.6l2-2L68.9,13c5.1,7.9,4.2,18.5-2.7,25.4
				c-6.1,6.1-15.3,7.5-22.8,4L42.8,43l-1.5,1.5c8.7,4.5,19.6,3.1,26.9-4.2c8.6-8.6,9-22.5,1-31.6L68,9.9l-0.8,0.8L42.1,35.9l-2,2
				l-5.3,5.3l-0.7-0.7c-0.4-0.4-0.8-0.3-0.9,0.3l-1.1,4.4C31.9,47.7,32.2,48,32.7,47.9z"/>
		</g>
	</g>
</g>
<g id="框" display="none">
</g>
</svg>
